<?xml version="1.0" encoding="utf-8"?>
<!-- Generator: Adobe Illustrator 21.1.0, SVG Export Plug-In . SVG Version: 6.00 Build 0)  -->
<svg version="1.1" id="Camada_1" xmlns="http://www.w3.org/2000/svg" xmlns:xlink="http://www.w3.org/1999/xlink" x="0px" y="0px"
	 viewBox="0 0 1024 1024" style="enable-background:new 0 0 1024 1024;" xml:space="preserve">
<style type="text/css">
	.st0{clip-path:url(#SVGID_2_);}
	.st1{fill:#08ACFC;}
	.st2{clip-path:url(#SVGID_4_);}
	.st3{fill:#0D7DF8;}
	.st4{fill:#FFFFFF;}
	.st5{fill-rule:evenodd;clip-rule:evenodd;fill:#F7C537;}
	.st6{fill-rule:evenodd;clip-rule:evenodd;fill:#051C41;}
</style>
<g>
	<defs>
		<path id="SVGID_1_" d="M820.6,1016.6H203.4c-108.2,0-196-87.7-196-196V203.4c0-108.2,87.7-196,196-196h617.3
			c108.2,0,196,87.7,196,196v617.3C1016.6,928.9,928.9,1016.6,820.6,1016.6z"/>
	</defs>
	<clipPath id="SVGID_2_">
		<use xlink:href="#SVGID_1_"  style="overflow:visible;"/>
	</clipPath>
	<g class="st0">
		<rect x="-10.3" y="7.2" class="st1" width="1029.4" height="1009.7"/>
		<g>
			<defs>
				<rect id="SVGID_3_" x="9.5" y="7.2" width="1009.7" height="1009.7"/>
			</defs>
			<clipPath id="SVGID_4_">
				<use xlink:href="#SVGID_3_"  style="overflow:visible;"/>
			</clipPath>
			<g class="st2">
				<path class="st3" d="M1229,565c-45.4,43.8-92.4,86-139,128.5c-102.1,92.9-199.5,190.8-296.7,288.8
					c-81,81.7-162,163.4-245.6,242.4c-18.5,17.5,9.3,45.1,27.9,27.9c33.5-31,67.4-61.4,101.7-91.5c-37.8,34.4-75.1,69.3-111.4,105.4
					c-27.6,27.6-54.7,55.7-81.3,84.4c-14.6,15.7,5.4,45.1,23.9,31c107.4-81.6,201.7-178.1,297.9-272.2
					c45.1-44.1,90.9-87.3,138.7-128.4c38.1-32.7,76.9-64.5,115.3-96.9c-98.8,117.9-202.8,231.5-311.5,340.3
					c-18.3,18.3,8.7,44,27.9,27.9c22.8-19.1,45.6-38.2,68.5-57.2c16.3-13.6,32.7-27.2,49-40.8c5.5-4.6,11-9.1,16.6-13.7
					c1.4-0.8,2.7-1.7,4-2.7c48.3-40.3,96.6-80.7,146.9-118.4c-6.9,9.8-14.1,19.5-21.4,28.9c-26.7,34.5-56.9,70.4-94.1,94
					c-21.4,13.6-1.6,47.7,19.9,34.1c40.3-25.6,72.9-62.9,102.1-100.2c28.2-36.1,55-74.4,74.6-115.9c7.8-16.5-9-38.7-27-27
					c-42.9,28-83.8,58.6-123.9,90.4c61.6-69.5,121.5-140.6,179.3-213.3c7.1-9,6.4-19,1.2-25.7c41.7-39.9,81.2-82.1,116.3-128.2
					c12.3-16.2-11.1-36.8-27-27c-56.4,34.7-105.9,79.3-155.6,122.7c-51.9,45.3-105.9,88.1-159.3,131.6c28.3-28.1,56.7-56,85.5-83.5
					c47.1-45,95.7-88.4,143.8-132.3c77.4-70.7,153.7-143,219.9-224.4c13.4-16.5-3.5-43.3-23.9-31c-51.4,31-99.8,66.4-146.5,104
					C1217,547.4,1203.2,586.4,1229,565z"/>
				<path class="st3" d="M1719.2-247.7c-149,106.8-286.8,228.3-419.8,354.2c-24.2,22.9-48.2,45.9-72.1,69c2.1-3.8,4.1-7.6,6.1-11.5
					c9-17.8-9.1-36.3-27-27c-58.7,30.4-112.6,69.3-163.8,111.8c117.3-132.5,239.6-260.2,363.8-386.3
					c95.8-97.3,192.1-194.1,286-293.3c3.5-3.7-2.1-9.3-5.6-5.6c-136.2,143.9-277.4,282.9-415,425.4
					c-68.7,71.2-136.6,143.3-202.3,217.3c-23.4,26.3-46.5,52.7-69.6,79.2c-30,26.5-59.3,53.8-88.2,80.7
					c-45.3,42.2-90,85.2-137.2,125.4c-36.1,30.7-72,61.7-107.7,92.9C785.4,463,904,341.4,1027.9,225
					c82.5-77.5,165.8-154.4,241.9-238.4c14.3-15.8-5-44.8-23.9-31c-108,78.7-205.4,169.5-299.7,263.7c47.9-53,96.1-105.7,146-156.9
					c89.1-91.4,180.5-181.3,255.6-284.9c5.1-7.1,2.7-18.1-3.1-23.9c-1.6-1.6-3.4-2.9-5.2-3.8c81.6-73.9,166-144.8,242.5-224
					c3.5-3.7-2-9.2-5.6-5.6c-70.5,73-147.6,139.1-223.2,206.7c-7.8,7-15.6,14.1-23.4,21.2c-4.6,0.4-9.2,2.4-13.1,5.5
					C1132.3-97.8,975.1,79.9,814.6,253.3c-11.2,10.5-22.4,20.9-33.7,31.2c14.4-15.2,28.8-30.3,43.1-45.6
					c164.1-174.6,322.5-355,464.6-548.2c5.4-7.3,4.3-14.8,0-20.2c34.8-37.5,68-76.5,98.6-117.8c12-16.2-11-37.1-27-27
					c-105.4,66.6-191.6,159.4-278.1,248c-93,95.1-192.8,183-291,272.7C684.2,143.9,575,238.8,467.2,335.3
					C358.1,433.1,249,531,139.8,628.7C30.3,726.6-79.4,824.4-189.6,921.6c-25.9,22.9-52.3,45-79.2,66.6
					c98-103.5,199-204.1,301-303.6c96-93.7,193.7-185.3,294.3-274c99.2-87.4,200.1-172.9,300.6-258.8
					C827.7-19.7,1027-193.7,1206.5-387.6c24.1-26.1,47.8-52.5,71.1-79.3c12.5-14.4,0.1-36.7-16.8-33.7c4.9-4.2,9.9-8.5,14.8-12.7
					c53.3-45.9,104.9-94.2,147-150.8c5.2-7,2.7-18.2-3.1-23.9c-8.3-8.3-19.4-6.6-27.9,0c-107.2,83.6-203.1,180.1-301.4,273.7
					c-85.4,81.4-174.3,159.1-263,236.9c21.3-22.7,41.3-46.7,59-72.6c13.2-19.3-15.1-38.4-31-23.9
					C642.2-79.6,430.1,116.5,207.5,300.1c-57.9,47.8-116.2,95-174.5,142.3c53.3-50,107.8-98.7,162.9-146.7
					C287.4,216.2,380.5,138.4,472.1,59C547.8-6.6,622.6-73.3,694.6-142.9c3.7-3.5-1.9-9.1-5.6-5.6C602.2-64.5,511.4,15.1,419.8,93.7
					c-92.1,79-185.1,157-276,237.3C80.7,386.9,18.5,443.9-41.5,503.1c-11.5,9.4-23,18.8-34.4,28.2c38.7-40.5,78.1-80.5,116.9-120.9
					C91.9,357.2,142.7,304,193.5,250.7c8.7-9.1,17.3-18.2,26-27.3C302.8,146.6,385.3,68.9,467.4-9.1
					c48.2-45.8,96.2-91.9,143.8-138.3c44.9-43.8,88.8-88.7,134.3-131.8c63.2-60,128.9-119.4,178.4-191.8c2.9-4.2-4-8.2-6.8-4
					c-33,48.2-73.7,90.7-115.5,131.3c-41.9,40.8-84.6,80.6-126.1,121.8C581.2-128,485-36.1,388.1,55.1
					c-24.5,23.1-49.1,46.1-73.8,69.1c56.3-59,112.7-118,169.2-176.9c44.3-46.2,88.3-92.4,135.3-135.9c45.5-42,91.6-83.7,130.3-132.4
					c15.7-19.8-8.2-44.5-27.9-27.9C618-262.3,525.1-164.6,431-68.3c-47,48.1-94.4,95.9-143.6,141.8c-34.3,32.1-70.2,61.9-106.7,91.3
					c26-32.1,51.8-64.4,77.6-96.7c12.9-16.2,25.8-32.5,38.6-48.8c109.9-95,218.6-191.5,326-289.3
					c124.5-113.2,247.4-228.3,368.8-344.8c67.1-64.4,133.7-129.2,199.8-194.5c3.6-3.6-2-9.2-5.6-5.6
					c-119.4,117.9-240.3,234.3-362.7,349.1C700.6-350.8,576.3-237.4,450.5-125.8c-42,37.2-84.3,74.1-126.7,110.9
					c32.6-41.2,65.6-82.2,100.3-121.6c53-60.3,111.3-119.4,146.7-192.4c10.1-20.9-13.5-37.8-31-23.9c-50.7,40.4-95.7,87-139.8,134.4
					c-44.5,47.8-89.6,94.6-135.4,141.1C210-21.9,153.8,32,97,85.2C158.8,6.8,217.8-73.8,275-155.4c11.2-16-11-38.2-27-27
					C112.1-87.1,14.5,49.6-95.2,171.7c-16.9,18.9,10.9,46.8,27.9,27.9C4.1,120.1,70.3,33.3,145.8-43.3
					C34.1,107.1-86,251.2-221.4,380.7c-18.4,17.6,9.5,45.4,27.9,27.9C-13.7,237.5,173.7,74.4,346.3-104
					c-12.7,15.5-25.4,31.1-38,46.7C259.1,3.7,210.7,65.2,161.4,126.1c-29.4,25.8-58.8,51.6-87.9,77.7C40.6,233.3,7.1,262.3-25,292.7
					c-26.1,24.7-48.4,55.7-81.9,71c-4.6,2.1-0.6,8.9,4,6.8c29.9-13.6,51.6-39.9,74.1-62.9c12.8-13.1,26.7-25,40.3-37.3
					c15.7-14.2,31.4-28.3,47.1-42.5c24.3-21.9,48.7-43.7,73.2-65.3c-31.2,38.1-62.7,75.9-95.1,113.1c-3,3.5-6,6.9-9,10.4
					c-109.2,88.2-214.7,182.5-291.7,299.9c-11.3,17.3,10.4,36,27,27c48.4-26.3,89.6-64.6,127.2-104.4c40-42.4,76.3-88.3,113.2-133.4
					c16-19.6,32.4-38.8,49-57.9c31-25,62.5-49.4,93.8-74c-3.7,3.9-7.4,7.8-11.1,11.7C87.4,304.8,39.5,354.9-8.4,404.9
					c-47.3,49.3-95.5,97.7-141.8,147.9c-46.8,50.7-91.6,103.3-137.4,155c-38.2,31.9-75.3,65.3-105.7,104.8
					c-7.4,9.5-14.2,19.4-20.5,29.7c-11.8,19.5,15,39.3,31,23.9c43.1-41.7,83.6-85.8,123.4-130.7c45.9-38.5,92-76.8,137.9-115.3
					c100-83.8,201.9-165.4,303-247.9c-32.2,32-64.1,64.5-95.6,97.2c-10.9,11.3-21.8,22.6-32.6,33.9
					c-62.7,54.9-124,111.4-179.9,173.2c-6.8,7.5-6.9,15.9-3.4,22.4c-28.1,30.3-55.3,61.5-80.9,93.9c-23.1,23.2-46.1,46.7-68.9,70.1
					c-35.4,36.4-70,73.4-106.1,109.1c-30.6,30.2-65.4,62.6-81,103.7c-6.2,16.3,15.1,31.2,29,22.3c15.1-9.7,29.4-20.3,43.2-31.6
					c-27.3,30.1-54.2,60.5-80.8,91.3c-36,34.5-69.2,72.3-95.9,114.5c-11.8,18.7,16.7,41.4,31,23.9c31.8-39,64.2-77.5,97.1-115.5
					c48-45.4,101.7-85.6,153.3-125.3c106.8-82.3,206-174,306.7-263.6c218.9-194.8,436.5-391.1,655.1-586.1c3.3-3,6.7-5.9,10-8.9
					c-63.7,62.9-127.1,126-190.8,188.8c-48.4,47.7-97.5,94.8-146.5,141.8C236.1,622.5,127.4,717.1,19.4,812.4
					c-73.9,65.2-149,134-200.5,219.1c-4.6,7.6-3.1,17.7,3.1,23.9c8.3,8.3,19.4,6.6,27.9,0c105-81.6,198.1-177,290.9-271.8
					c81-82.7,164.4-162.5,247.5-243c8.3-7.4,16.6-14.7,25-22.1c107.8-95.4,214.7-191.8,319.5-290.4
					c103.7-97.6,204.9-197.7,306.1-297.8c17.9-17.7,35.9-35.4,53.9-53C976.1,18.2,852.1,153,725.8,285.2
					c-86.1,90.1-173.4,179-260.6,268c-83.7,68.9-167.1,138-247.8,210.5c-48.8,43.9-97.5,88.6-143,136c-44,45.9-85.4,94.7-134.8,135
					c-3.9,3.2,1.7,8.8,5.6,5.6c37.4-30.6,70.3-65.9,103.1-101.2c33.5-36.1,68.3-70.7,104-104.6c75-71.1,153.3-138.6,232.6-205
					c10.1-8.4,20.2-16.8,30.3-25.2C328,693.6,241.9,784,153.3,871.9c-87.1,86.6-175.9,171.6-262.8,258.4
					c-27.6,27.6-55.3,55.2-82.5,83.3c-59.1,47.7-117.7,97.5-158.7,161.1c-6.9,10.7-0.1,23.9,10,28.4c-32.4,32-61.8,66.7-84.9,105.7
					c-12,20.3,14.5,37.8,31,23.9c58.4-49.2,115.6-99.9,172-151.3c-2.8,16.3,16.9,30.3,33.1,17.2c87.2-70.3,170.2-145.6,251.8-222.4
					c20.5-17.9,41-35.8,61.5-53.8c107.6-94.7,213.9-191,320.4-286.9c106.6-96,213.5-191.6,322.2-285.1c8.7-7.4,17.3-14.9,25.9-22.4
					C720,612.5,647.3,696.8,572.7,779.3c-23.9,17.8-48.1,35.3-72.2,52.8c-122.2,88.8-248.9,178.2-344,297.3
					c-3.1,3.9,2.4,9.6,5.6,5.6c105.3-132,248.7-227.4,383.7-326.1C532.9,823,520,837,506.9,851c-89,95.5-181.5,187.9-279.4,274.4
					c-3.8,3.4,1.8,8.9,5.6,5.6c122.3-108.1,236-225.4,345.4-346.4c56.9-42.7,112.1-87.2,165.3-134.6c14.1-12.5,28.1-25.2,42-37.9
					c-30.8,33.7-61.6,67.4-92.7,100.8c-41.1,44.2-82.5,88.2-124.3,131.8c-46.9,44.6-93.6,89.4-140.2,134.4
					c-52.4,50.7-104.7,101.5-156.8,152.5c-49.9,48.8-99,98.6-150.8,145.4c-91.5,82.6-188.9,159.8-267.6,255.3
					c-16.1,19.5,8.6,44.9,27.9,27.9c108.2-95.6,212.9-195.1,317.8-294.3c103.4-97.8,205.8-196.5,305.5-298.1
					c30.3-30.9,60.3-61.9,90.2-93.1c170.7-162,344.1-321.1,520-477.6c20.9-18.6,41.7-37.1,62.6-55.6c-18,19.2-36,38.4-54.1,57.6
					c-2,2.2-4.1,4.3-6.1,6.4C987.6,517.2,860.8,632.3,736.7,750.3C536,941,342.3,1139.1,154.3,1342.4c-28.1,30.3-56,60.8-83.8,91.4
					c-14.5,15.9,4.6,44.1,23.9,31c27.2-18.5,51-41.2,74.7-63.9c25.1-24.1,50.4-47.8,75.3-72.1c52.6-51.3,105.2-102.6,157.7-154
					c41.4-40.5,82.6-81.3,123.8-122c-18.3,21.1-35.7,42.9-52.2,65.6c-2.3,3.1-3.3,6.4-3.4,9.5c-20.5,21.5-40.7,43.3-60.6,65.4
					c-16.9,18.8,9.6,45.8,27.9,27.9c3.3-3.2,6.6-6.5,9.9-9.7c-3.1,16.1,17.7,30.8,33.5,17.6c51.7-43.2,99-91.2,145.7-139.7
					c12-12.5,24-24.9,36.1-37.3c40.3-36.9-177.9,131.7-136.6,96c102.6-88.6,588.5-565.1,690.2-654.7c15.6-13.7,16.1-4.1,12.2,12.4
					c41.8-38.1,83.5-77.6,115.3-124.7c4.1-6,3.6-12.9,0.5-18.5c6.7-6.3,13.3-12.6,20-18.9c48.5-45.9,96.4-92.5,143.4-139.9
					c23.8-24,47.2-48.4,71-72.5c22.4-22.7,43.8-46.6,61-73.6c4.7-7.4,3-17.8-3.1-23.9c-8.3-8.3-19.5-6.7-27.9,0
					c-74.6,59.1-145.8,121.9-215.2,186.8c2.5-14.6-13.6-27.4-28.6-20.2c23.6-26.5,45.9-54.1,65.7-83.6c13.1-19.5-14.9-38-31-23.9
					c-154.9,136.4-309.9,272.7-463.1,411.1c0.6-0.7,1.2-1.3,1.8-2c40.1-44.9,81.8-87.7,124.5-130.1
					c52.9-52.5,108.6-106.9,149.2-170.4c43.4-42.2,87.1-84,131.3-125.3c120.6-112.5,245.7-220.8,379.8-316.9
					C1727.3-243.8,1723.3-250.6,1719.2-247.7z M761.2-30.4c85.3-76.2,170.4-152.4,254.6-229.8c32.3-29.7,64.9-59.1,98.4-87.5
					C977-206.2,829.7-74.7,680.6,54.1C568.4,151,454.5,246.3,342.5,343.8C482.3,219.2,621.6,94.3,761.2-30.4z M-196.8,838.3
					c4.6-6,9.3-12,14-17.9c41.5-41.7,83.6-82.8,126.8-122.8C-3.3,648.7,51.3,602,105.2,554.5c32.4-28.6,64.7-57.2,97-85.8
					c-39.5,36-78.6,72.6-117.1,109.8C-32.3,691.9-149,806.2-262,924C-239.8,895.5-218.3,866.5-196.8,838.3z M749.2,323.3
					c-94.4,100-191.6,197.3-290.4,293.1c27.3-28,54.6-56,82-83.9c58.2-59.4,116.3-118.9,174-178.8
					C726.3,343.6,737.8,333.4,749.2,323.3z M40.3,1142.8c-1.9,1.8-3.7,3.5-5.6,5.3c-21.8,19-43.6,37.9-65.6,56.7
					c-8.8,7.5-17.7,14.9-26.6,22.3c54-51.4,107.8-103.1,161.7-154.6c14.6-13.1,29.2-26.2,43.8-39.2c40.2-35.7,80.5-71.4,120.6-107.2
					C192.9,998.6,116.6,1070.8,40.3,1142.8z M170.9,954.7c-30.2,28.5-60.3,57.1-90.3,85.7c-10.2,9-20.3,18-30.5,27.1
					c-47.8,42.5-95.5,85-142.9,127.9c-37.2,33.6-77.1,64.2-116.3,95.4c-1.8,1.5-3.7,2.9-5.5,4.4c6-6.7,12.1-13.3,18.3-19.8
					c10.4-10.9,20.8-21.7,31.3-32.5c33.4-27.3,67.2-54.1,99.4-82.8C40.5,1065.5,144.2,967.8,248,870.7
					c122.2-114.4,243.3-229.9,361.7-348.3C466.8,669.9,320.4,813.9,170.9,954.7z M699.3,678.7c-30.4,26.4-61.8,51.5-93.8,75.9
					c8.6-9.6,17.1-19.2,25.7-28.8c68.6-77.4,135.8-156,202.9-234.7c25.2-22.5,50.1-45.2,74.8-68.2c47-43.9,93.9-87.8,142.9-129.4
					c32.9-28,66.9-55,102.7-79.2c-17.8,23.2-37.4,45.1-57.3,66.4c-41.6,44.4-85.9,86-128.2,129.6c-42.6,43.8-82.4,90.5-123.1,136
					C797.7,591.2,749,635.5,699.3,678.7z"/>
			</g>
			<g class="st2">
				<path class="st3" d="M636,1126.3c60.3-91.9,147.9-161.8,229.8-233.4c41.2-36,80.7-74.1,121.2-111
					c42.2-38.4,84.7-76.5,126.5-115.2c84-77.7,166-158.3,237.3-248.1c11.8-14.9,23.4-30.1,34.5-45.5c3-4.1-3.9-8.1-6.8-4
					c-67.3,92.9-147.3,175.6-230.3,254.4c-82.3,78.1-168.2,152.4-250.6,230.5c-39,36.9-81,70.7-121,106.5
					c-41,36.8-80.9,75.2-115.5,118.2c-11.3,14.1-22,28.7-32,43.8C626.4,1126.6,633.2,1130.5,636,1126.3L636,1126.3z"/>
			</g>
		</g>
		<g>
			<path class="st4" d="M851.6,367.3c16.8-69.2-31.1-132.8-86.2-165.1c-55.2-32.2-123.3-39.4-182.7-42.1c-11.3-0.5-22.4-0.8-33-0.8
				c-68.2,0-123,10.1-167.5,30.9c-72.7,33.9-122.2,72.4-160.7,124.8c-56.5,77-73.2,155.5-73.9,219.8l-3.7-3l3.9,18.8
				c0.5,16,1.9,30.9,3.8,44.5c7.8,55.4,23.6,103.9,47,144c7.7,13.2,16,25.4,24.6,35.4c8.9,10.4,19,22.7,37,22.7h7
				c1.8,2,3.7,2.8,5.6,4.5c26,23.3,57.7,37.7,88.8,48.4c4.5,9.7,13,17.2,23.9,20.1c64,17.6,112.6,25.4,157.8,25.4
				c91.9,0,168.7-35.3,234.8-108c2-2.2,3.9-4.3,5.5-6.3c0.5-0.6,1-1.2,1.5-1.7c20.2-22.2,35.6-47,45.8-73.8l0.1-0.2
				c1.5-4.1,3.1-8.5,4.6-13.2c9.9-27.9,14-59.4,12-91.4c1.8-9.4,1.3-18.2-1.6-26.2l-0.2-0.5c-0.6-1.7-1.4-3.3-2.2-4.8
				c-8.1-41.9-26.6-80-54.3-112C821.4,438.5,843.3,401.7,851.6,367.3z"/>
			<g>
				<path class="st5" d="M441.9,698.2l-0.8,0.4l-2.7,1.1L441.9,698.2z M604.6,668.1c29.5-23,61.3-45.2,94.9-66.4l-7.6,6.7l-2,1.8
					c-27.5,24.9-57.3,46.7-82.6,64.6l-1.6,1c-0.1-1.3-0.4-2.6-1-3.6c-0.6-1.1-1.6-2-2.7-2.6C602.8,669.4,603.7,668.9,604.6,668.1z
					 M532.5,274.9c-8.1,3.2-40.5,16.9-61.9,25.4c-44.3,17.4-89.6,35.3-135.8,50c30.4-13.5,67.1-32.6,97.5-45.4
					C461.5,295,502.8,283.7,532.5,274.9z M508.9,693.2c1.9-4.2,4-9.5,4.3-13.7c10.6-8.5,19.4-16,27.1-23.2c2.2-2,12.7,25.7,9.9,18.8
					c-1.4-3.5-5.4-5.2-9.1-3.8c-28.9,11.2-59.7-22.7-90-8.9c0-2.3-0.7-3.5-1.2-4.2c-2-3.2-6.2-4.2-10.3-2.2l-38.4,29.1
					c2.3-5.3,34.7-35.9,33.3-39.5c-1.7-4-6.3-5.6-11.1-3.2c-3.3,1.8-6.7,3.4-10,5.1l-0.5-0.8c-1.3-1.9-3.4-3-5.7-3l-1.3,0.1
					c2.2-5.1,3.7-10.5,2.4-13.7c-1.6-4-6.4-5.6-10.9-2.8l-1.5,0.9c3-4.1,11.1-16.3,8.4-23c-1.1-2.8-3.9-4.5-7.4-4.5l-5.3,0.3
					c3.4-5.5,7.5-14,5.6-18.9c-1.1-2.7-3.7-4.4-6.6-4.4l-1.2,0.1l-4.3,0.6c3.2-5,9.7-16.3,7.3-22c-1.1-2.5-3.4-4-6.1-4.1
					c2.6-5.1,5.6-12.5,3.7-16.8c-1.1-2.5-3.5-3.9-6.1-3.9l-2.3,0.3l-65.7,26.5c3.8-3.2,68.8-31.7,72.1-35.1c0.6-0.7,4.1-6,6.6-11.8
					l5.4-3.2l-4.7,1.5c1.6-4.2,2.6-8.5,1.5-11.1c-0.8-1.9-2.4-3.3-4.4-3.8c5.9-5,11.4-10.2,16.5-15.6c0.1-0.1,12.1-16.8,8.9-24.3
					c-0.5-1.1-1.2-2.1-2.2-2.8c26.1-13.6,49.4-26.5,71.3-39.8c5.2-3,11.2-15.7,11.5-22.9c15.7-5.4,31.4-10.9,46.7-16.3
					c-1.5,3.9-2.2,7.6-1.7,9.6c0.6,3.1,3.3,5.2,6.2,5.2l1.9-0.2l17.9-5.3c15.9-4.6,78.4-29.8,94.4-34.9l-45,21.9
					c-6.9,3.3-16.7,19.7-15.6,25.1c-4,9.8-2.1,12.9-1.5,14c1.3,1.8,3.3,2.9,5.5,2.9h1.1l1-0.3c15.3-4.9,31.6-9.2,47.3-13.3l13.8-3.7
					l-4.4,2.2c-6.4,3-13.9,20.4-12.6,26.4c0.8,3.3,3.4,5.4,6.6,5.4l1.8-0.2c8.4-2.3,16.8-4.8,24.8-7.3c13.4-4.1,27.1-8.2,41-11
					c-0.4,2.8-0.1,5.5,1.2,7.7c1.3,2.2,3.5,3.4,6,3.4c4.5,0,7.8-3.9,10.7-8.1c5.4-7.9,10.1-15.4,12.7-26.6c0.8-3.8,0.4-6.9-1.4-9.1
					c-1.2-1.6-3.2-2.6-5.3-2.7l1.8-1.5c2.3-1.8,6.5-8.3,9.1-13.2c6.7-3.9,12.6-8,18.5-12.3c3.2-2.4,13.3-19.2,11.1-25.7
					c-1-2.8-3.4-4.6-6.3-4.6l-1.3,0.1l-0.8,0.3c-8.7,2.5-17.4,5-25.8,7.2c3.1-5.7,6.3-13.1,4.5-17.4c-1-2.7-3.5-4.4-6.4-4.4L754,303
					l-12.3,2.8l1.8-1.5c2.6-2.2,11.9-18.2,9.4-24.7c-0.9-2.7-3.4-4.4-6.3-4.4l-1.3,0.1l-0.8,0.2l-9.4,2.7c3.1-5.5,5.5-11.9,4.7-15.7
					c-0.9-3.5-3.8-5.8-7.6-5.8c-5.2,0.2-10.2,0.5-15.6,1.3c1.7-4.5,2.7-9.3,1.1-12.1c-1.2-2-3.3-3.2-5.6-3.2l-1.7,0.1l-1.1,0.5
					c-14.4,6.2-29.1,12.4-44.4,18.6l2.9-2.9c0.1-0.1,11-15.1,8.1-22.1c-1-2.4-3.4-4.1-6.1-4.1l-1.7,0.3l-4.7,1.2
					c3.5-5.9,7.1-14.1,5.8-18.1c-0.9-2.8-3.3-4.5-6.2-4.5l-2,0.3c-21.1,6.1-42.6,12.3-63.7,18.2c1.6-3.9,2.3-7.8,1-10.7
					c-1.2-2.7-3.7-4.4-7.2-4.4l0,0c-77.6,5.1-150,39.7-220.1,73.3c-15.8,7.4-32.1,15.3-47.9,22.4c-6.1,2.8-9.9,12.5-11.5,17.4
					c-19.1,9.2-36.4,18.3-52.7,27.7c-5.8,3.4-12.2,19.7-10.8,25l1.5,4.7h6l3.6-1.6l1.8-0.8c-0.8,2.9-1.2,5.4-1,6.8
					c0.5,3.9,3.5,5.9,6.3,5.9l1.3-0.2l12.3-2.6c-0.7,0.8-1.5,1.7-2.2,2.8l-9.8,3.4c-8,2.9-13.5,19.3-12.6,24.3
					c0.5,3.2,3,5.4,6.1,5.4h1l0.9-0.4c21.6-7.1,43.4-14.1,65.1-21l-12.1,6c-24.4,8.9-52.1,18.9-76,34.4c-4.4,2.9-13,19.8-11.3,25.8
					c0.9,2.8,3.4,4.7,6.3,4.7h1.3l0.9-0.3c6.6-2.2,13.1-4.5,19.5-7.2c-4.1,6.1-8.2,16.2-6.7,21c0.8,2.9,3.3,4.7,6.3,4.7
					c1.5,0,2.9-0.4,4.3-1.4c29.3-18.6,61-36.1,96.7-53.4c27.5-12.2,80.7-33.9,108.2-43.7c-54.6,29.5-135.8,66.6-191.1,91.9
					c-22.1,10.2-44.1,20.3-66.1,30.6c-6.9,3.3-9.8,15.5-8.5,21.2c0.7,3.2,3.3,5.3,6.4,5.3l1.3-0.1l1-0.3c19.2-7,38.8-14.5,57.6-21.8
					c24.5-9.5,64-22.8,89.3-31.5c-17,9-53,26.1-70.4,33.9c-19.5,8.9-39.7,17.9-58.5,28.2c-5.6,3.1-13.7,19-12,25.8
					c0.8,3.2,3.6,5.3,6.8,5.3c-4.7,2.7-9.3,5.7-13.9,8.8c-4.8,3.2-12.7,20.4-11,26c0.8,2.7,3.3,4.5,6,4.5l1.6-0.1l1-0.5
					c20.5-8.5,41.6-17.1,63.3-25.4L245,612.5l-6.7,3.5c-6,3.2-13.2,20.3-11.8,25.8c0.7,3,3.3,5.1,6.3,5.1h1.2l0.8-0.3
					c6.7-2.2,13.1-4.4,19.4-6.7c-1.7,4.6-2.5,9.1-2,11.3c0.6,2.9,3.1,5,6.1,5h1.4l1.1-0.6c7.7-3.2,15.2-6.6,22.7-10.1l-8.6,5.2
					c-5.3,3.2-13.1,19.4-11.2,25.7c1.2,4.3,6.1,6.3,10.6,3.8l12.8-7.4c20.2-11.8,62.6-36.6,84.1-44.2c-9.1,7.4-39.8,26.9-48.7,33
					c-10.8,5.4-19.5,10.9-27.3,17c-3.3,2.6-13.2,19.3-10.8,26c1.4,4.1,6.1,5.9,10.6,3.4l0.8-0.4c-0.6,2.5-0.8,4.7-0.2,6.3
					c1.3,4.2,6.1,6.2,10.7,3.7l2.3-1.2c-1.8,4.7-2.8,9.3-1.7,12.2c1.5,4.2,6.3,5.9,11,3.2l14.2-8.3c-1.3,3.1-2.2,6.4-2.7,9.1
					l-5.8,4.4l-2.9,1.5v0.8c-4,3.9-12,19.8-9.7,26.4c1.5,4.3,6.4,6.2,11.2,3.6c12.3-6.7,24.1-14.3,35.2-21.9
					c-3.8,6-9.4,17.6-7.2,23.1c1.7,4.2,6.2,5.9,11.2,3.5c6.7-3.5,13.4-6.8,19.9-10.4c-3,5.4-7.2,15.5-4.9,20.6
					c1.1,2.5,3.5,4.1,6.3,4.1c2.8,0,5.3-1.7,7-3.1l1.6-1.4c-1.1,3.8-1.6,7.3-0.8,9.5c1.4,4.4,6.6,6.1,11,3.1l41-38.6
					c-4,5.4-38.1,48.4-35.9,54.1c1.1,2.7,3.6,4.4,6.4,4.4c2.8,0,5.2-1.7,6.9-3.3l15.2-13.4l6.4-5.3l-2.8,3.2
					c-1.3,1.5-9.9,17.3-6.7,24c1.6,3.3,5.7,4.6,8.9,3.4c0.2,0.9,0.5,1.7,0.9,2.4c1.2,1.9,3.3,3.1,5.6,3.1c3.1,0,5.4-1.8,7.2-3.5
					c15.9-14.9,32.7-29.3,49.2-43.2l-5.2,6.3c-0.1,0.1-10.8,18.1-7.3,25.5c1.9,3.9,6.7,5.3,11.5,2.3l32.5-20.4l15.3-7.8
					c-3.4,6.1-6.5,15.2-6.6,19.6v0.6c-4.5,6.3-11.2,19.8-8.7,25.8c1.1,2.7,3.6,4.4,6.6,4.4c1.4,0,2.9-0.4,4.5-1.3
					c27.9-15.5,56.1-32.9,83.8-51.6c22.6-11.9,46-23.1,68.7-34c13.8-6.6,27.6-13.3,41.3-20c7-3.5,15.4-21.6,13.7-29.2
					c-0.9-3.9-4.1-6.2-7.8-5.8c3-3.3,11.1-17.3,10.5-25.3c12.4-9.3,22.9-17.3,32.8-25c4.3-3.4,12.8-21,10.4-28
					c-0.4-1.4-1.3-2.6-2.3-3.4l1.4-1.1c3-2.6,13.3-20,10.5-27.7c-1.6-4.2-6.2-6.1-11.3-3.6c-17.7,8.4-35.6,17.9-54,28.6
					c8.6-10.2,16.1-20.6,22.9-31.2c0.1-0.1,9-15.3,5.2-22.3c-2-3.6-6.4-4.9-11.2-2.5c-2.7,1.3-5.2,2.8-7.8,4.3
					c2.1-5.3,3.3-10.6,2.5-13.8c-1.3-4.7-6.4-6.8-11.2-4.1c-6.3,3.5-12.6,7.4-19,11.1c2.4-5.4,3.9-11.1,2.7-14.5
					c-0.6-1.6-1.6-2.9-2.9-3.7c3.5-6.1,7.3-14.8,5.2-19.7c-1.7-3.9-6-5.5-10.9-3.4l-59.1,30.4l50.7-31.1c3.4-2.7,9.7-17.4,7.5-23.7
					c-1-2.7-3.3-4.4-6-4.4c2.7-5.7,4.6-11.8,3.4-15.3c-1.4-4.4-6.1-6.3-10.9-3.8c-13.1,7-26.6,13.8-39.8,20.6
					c1.8-5,3.1-10.2,1.8-13.1c-1.5-4.2-6.6-5.8-11.1-2.7c-5.5,3.8-11.3,7.4-17.1,10.9c2.3-5.3,3.9-11.1,2.7-14.6
					c-1.6-4.1-6.5-5.6-10.9-2.8c-5.5,3.4-11.1,6.9-16.4,10.3c1.9-3.6,6.9-14.7,4.2-19.8c-1.5-3.1-5.5-4.5-9-2.8
					c-11.9,5.4-23.9,11.6-36.6,18.7c-0.2-1.1-0.5-1.9-1.1-2.6c-1.2-1.8-3.2-3-5.6-3l-1.6,0.1l-1,0.3c-17.2,6.5-34.9,12.3-52.1,17.9
					c-7.6,2.4-15,4.9-22.5,7.4c-7.2,2.4-13.3,17.7-12.5,22.9c0.6,3.2,3.2,5.5,6.3,5.5l1.4-0.2c4.9-1,9.8-2.1,14.6-3.2l-5.2,3.9
					l-16,12c-4.8,3.5-12.7,20.2-10.7,26.5c1.5,4.2,6.6,6,10.8,3.1c19-13.4,39.9-27.9,62-41.7c-10.4,8-17.8,17.3-28.3,24.9
					c-6.5,4.7-12,10.3-18.4,15c-4.4,3.3-17.1,17.7-14.9,24.2c1.5,4.2,6.4,6.1,10.8,3.3l9.9-6.2c-0.3,2.1-0.3,4.1,0.3,5.5
					c0.2,0.5,0.4,0.9,0.6,1.2c-3.5,6.7-6.4,15.5-5,19.6c1.4,4.3,6.7,5.9,10.9,2.7c5.1-4.1,10.5-8,16.1-12.1
					c-2.2,5.3-3.7,11.1-2.5,14.4c1.6,4.2,6.5,5.8,11.1,3l23.7-14.3l6.7-4.1c-2,5.2-3.2,10.4-2.4,13.2c0.8,2.9,3.3,4.8,6.3,4.8
					l1.6-0.2l1.1-0.4c11.2-4.7,22.3-9.5,33.4-14.5c-3.8,6.6-7.2,15-5.8,19.4c1,2.9,3.6,4.8,6.6,4.8l2.2-0.3c7.9-2.3,15.7-5,23.1-8.1
					c-9.2,8.6-18,17.1-26.6,25.7c-2.4,2.4-12.3,19.5-9.4,26.7c0.7,1.7,1.9,2.9,3.3,3.6c-1,0.6-2,1.2-2.8,1.9
					c-11.7,9.7-24.2,19.2-36.7,28.2c1.9-4.8,3-10,1.6-13.3c-0.7-1.5-2-2.7-3.4-3.4c1.3-4.1,2.1-8.1,1-10.7
					c-1.7-4.1-6.5-5.5-11.1-2.5"/>
				<g>
					<path class="st6" d="M783.1,404.5c-6.9,8.8-14.8,18.1-23.5,20.8c6-3.9,11.5-8.7,16.3-14.3c19.1-21.9,21.3-51.5,16.4-86.1
						c-8.2-56.2-71.7-89.1-124.5-103.7c-41.5-11.6-99.7-18.3-110.7-18.5c74.9,1.1,134.3,22.8,159.1,30
						C779.6,251.2,836.1,336.4,783.1,404.5z M719.4,407.4c-9.9,0-20.9-3.1-32.6-9.1c-1.2-0.7-2.7-1-4.4-1.2
						c-8.7-3.8-17.8-7.1-27.3-9.9c-14.6-7.7-28.5-5.5-41-9.3c-75.1-22.3-166-2.7-213.2,62.6c-21.2,29.3-37.8,65.7-36.9,101.3
						c-2.2,18.9-1,38.1,4.1,56.7c18.4,66.5,99.6,96.8,158.8,96.8c19.7,0,38.1-3.1,54.7-8.9c22.5-5.7,42.3-17.2,54.4-36.3
						c5-5.8,9.5-21.3,13.2-28.3c2.6-4.9,1.3-17.8,0.2-19.5c-0.5-0.8-1-1.4-1.7-2l0.1-0.6c0.1-0.6-0.3-0.4-0.6,0
						c-1.1-0.8-2.4-1.4-3.9-1.9l1.7-0.2c1.7-0.2,3.7-5.8,2.6-5.7c-41,5.8-85.1,17.5-120.3-4.8c-15.4-9.8-26.7-24.7-26.7-43.4
						c0.1-29.6,34.3-53.4,60.8-57.4c65.6-9.9,158.2,30.3,196.7,87.3c11.1,28.8,11.9,61.6,2,94.5l-0.7,2.3c-0.5,0.7-1.1,1.6-1.2,1.8
						c-1.6,5.3-3.4,10.4-5.3,15.4c-16.8,38.6-47,72.3-82.5,90.7c-42.3,22-87.4,33.1-134.2,33.1c-48.3,0-95.3-11.8-140-35.1
						c-71.6-37.4-130.1-100.5-147.8-177.3c-18.3-78.9,8.9-162.8,58.6-230.1c62.8-85.2,166.7-121.7,264.8-121.7
						c16.2,0,32.3,1.4,47.8,4.4c43.5,8.2,89.3,13.9,125.8,47.5c22.6,21,25.5,60.3,15.4,86.2C756.1,396.8,744.5,407.4,719.4,407.4z
						 M576.9,385c-38.3,0-75.4,8-107.6,23.2c-47.1,22.1-90,65.8-101.8,113.8c4.3-104.2,117.5-158.5,217.7-143.9
						c13,1.9,25.3,5.8,37.1,10.7C607.4,386.3,592.3,385,576.9,385z M495.2,573.3c-10.6-17.5-9.5-38.7,3.2-63.3
						c11.4-22.1,42.9-29.3,71.9-31c-12.5,1.1-33.3,4.5-43.1,11.4c-27.4,19-43.3,54.1-20.9,85.9c17.2,24.5,50.1,36.2,82.9,40.2
						C551.3,613.3,511.2,599.6,495.2,573.3z M585,478.6c25.3,0,50.4,3.3,67,6.1c38.7,6.4,73,30.7,95.1,66.8
						c-25.1-27.5-60.7-45.7-95.2-58.1c-19.5-7.1-45.8-14.6-70.5-14.7L585,478.6z M638.3,828.2c29.5-9.8,58.2-23.9,83.3-42.3
						C696.4,807,668.4,819.7,638.3,828.2z M219.7,663.6c-6.4-16.5-3.2-33.5-5.5-51.4c5.4,43.4-9.1,37.1,53.6,120.3
						c26.7,35.3,62.1,54.8,103,75.5C302.8,782.1,246.7,734.2,219.7,663.6z M745,233.9c-48.4-28.3-110.9-34.6-165.8-37.1
						c-60-2.7-128.6,1.2-183.4,26.7c-59.1,27.6-107.8,60.4-146.6,113.3c-60.5,82.5-74.5,172.9-63.2,253.2
						c17.3,123.3,73.1,170.6,72.2,169.5c-59.5-71.5-82.6-204-59.2-295.4c21.4-83.7,71.1-150.3,140.5-198.5
						c23-16.1,48.1-28.9,74.7-39C328.1,266,258.7,338.8,225.4,428.4c-8.4,22.6-14.2,45.6-17.3,68.6c-0.7,4-1.5,8-2,12.1
						c-6.1,48.4-8.7,98.6,5.4,145.1c13.9,45.5,48.5,88,84,119.8c29.9,26.9,71.6,41.1,109.7,51.6c8,2.1,15.9,4,23.9,5.6
						c26.8,7.8,55.1,21.8,84.1,23.2c-39.5,0.2-78.9-14-117.4-24.3c-1.3-0.4-3.4,4.5-2.7,4.7c136.4,37.5,251.1,43.4,356-71.9
						c2.2-2.4,4.4-5,6.6-7.5c16.5-18,29.9-38.8,38.9-62.4c1.5-4,2.9-7.9,4.1-11.9c20.8-57.5,15.5-149.9-54.8-215.5
						c-0.4-0.4-9.9,1.4-8.7,2.6c31.8,32,51.5,54.3,66.3,136.9c-3.7-20.4-12.4-46.2-21.9-64.5c-25.5-49-48.1-65.9-95.9-79.2
						c-22.8-6.5-52.4-10.1-81.3-10.1c-36.8,0-125.1,6.7-148.4,68.9c-10.6,28.2-8.9,52.7,5.2,72.9c26.5,38.3,91.8,51.2,141.9,50.2
						c-19.4,21.3-44.6,26.1-63.3,26.1c-48.4,0-100.2-31.2-120.5-72.6c-21.6-44.1-0.1-95.8,21.9-131.5c30.6-49.8,82.7-60.3,121-60.3
						c30.4,0,64.5,6.4,96.6,18.3l4.4,2.3c27.6,14.4,56.3,16.9,80.3,8.6c37.8-1.4,64.5-42.3,72.6-75.6
						C826.7,306.6,786.9,258.5,745,233.9z"/>
				</g>
			</g>
		</g>
	</g>
</g>
</svg>
