<svg id="Camada_1" data-name="Camada 1" xmlns="http://www.w3.org/2000/svg" viewBox="0 0 1458.15 354.04"><defs><style>.cls-1{fill:#fff;}.cls-2,.cls-3,.cls-4{fill:#20aeed;}.cls-2,.cls-4,.cls-5,.cls-7{fill-rule:evenodd;}.cls-4{stroke:#20aeed;stroke-linecap:round;stroke-linejoin:round;}.cls-5,.cls-8{fill:#f8c135;}.cls-6,.cls-7{fill:#041b40;}</style></defs><title>logo-01</title><path class="cls-1" d="M1415.26,150.63l-5.33-17.12-3.37,9.62c-1.33-2.64-2.75-5.24-4.24-7.78-6.74-21.66-22.84-37.67-47.5-47.42a104.67,104.67,0,0,0-51.52-14.17h-1.42a174.67,174.67,0,0,0-40.27,4.58c-27.79,4.67-50.17,16.53-64.85,34.45l-6.55,9.4,1.19,2.64a106.32,106.32,0,0,0-12.09,29.7,79.08,79.08,0,0,0-4.72-9.32,69,69,0,0,0-6.6-10.89,48.7,48.7,0,0,0,5.82-5.61c9.69-11.17,13.76-25.4,11.77-41.14-3-22.94-17.77-38.66-40.46-43.08-1.08-.28-2.2-.54-3.35-.78l-.09-2.41-17.38-.09c-32.73,0-48.87,24.79-50,47.82a58.42,58.42,0,0,0,14.51,41.51,22,22,0,0,0-6.06,10.23c-3.17,13.54-5.31,24.49-6.71,34.4-2.07,4.05-4.15,10.06-2.92,16.52a23.68,23.68,0,0,0,.81,2.89l-.1,1.36c-.65,11.51.07,22.85,1.12,34.31a47.17,47.17,0,0,0-17-6.75c-1.35-.36-2.64-.66-3.89-.91l-.1-2-15.38-.09-3.79.2-14.16,3.27c-1.61-10-5.5-18.24-11.6-24.68.65-.7,1.26-1.4,1.82-2.08a47.33,47.33,0,0,0,11.32-20c3.73-11,3.4-22.14-.8-31.81a57.56,57.56,0,0,0-5-12.92L996,109.39l-1-.9a91.72,91.72,0,0,0-14.76-9.25C968.37,90.31,954,88,941.51,87c-16.91-1.39-35.36.25-54.84,4.88-25.77,6-48.88,24.38-61.53,48.55-1.1-2.06-2.27-4-3.51-5.92,1.2-1.15,2.33-2.34,3.38-3.55,10.37-11.93,14.88-27.7,12.72-44.39C834.62,61.95,818.81,45,794.47,40l-.11-3.23-21.93-.2c-28.24,0-49.5,18.42-53.58,45.55A63.22,63.22,0,0,0,695.73,65a52.34,52.34,0,0,0-15.13-5.08c-1.94-.39-3.88-.71-5.69-1a70.65,70.65,0,0,0-9.91-.74c-17.44,0-32.12,6.68-41.33,18.79a45.27,45.27,0,0,0-9.29,27.36c-1.26-.68-2.58-1.33-3.95-1.93l-1.72-3.27L596,97.07A188.56,188.56,0,0,0,571.26,95,76.82,76.82,0,0,0,549,98a40.25,40.25,0,0,0-18-7.56l-.5-.79-15.25-.7c-14.43,0-27.5,5.12-37,14.42a48.85,48.85,0,0,0-5.85-5c-10.35-14-23.36-16.13-30.24-16.13-12.77,0-25.51,6.89-35.22,19a115.1,115.1,0,0,0-27.71-3.27,135.86,135.86,0,0,0-35.36,4.66,95.19,95.19,0,0,0-36,19.71c.54-1.7,1-3.24,1.28-4.58,7.17-29.83-12.68-56.82-35.52-70.34-21.72-12.88-48-15.7-70.86-16.76-29.73-1.33-54.33,2.84-75.18,12.69-26.3,12.43-48.52,30.2-64.25,51.39C35.82,131.82,29.74,183.3,46.69,236l5,15.27h6.67c15.93,33.81,55.09,54.47,57.31,55.56l12.15,3.55a196.35,196.35,0,0,0,51.8,7.14c41.59,0,77.33-14.27,100.58-40.14.33-.35.65-.71,1-1.07a74.14,74.14,0,0,0,31.41,30.32c12.23,11.4,28.14,16.74,47.31,15.86,6.87-.29,30.3-2.31,50.9-16.05,10.47,10.8,22.82,16.71,35,16.71,8.33,0,20.6-2.69,31.72-15.51,1.41-1.63,2.76-3.33,4-5.09,8,8.49,18.15,13,29.35,13a39.25,39.25,0,0,0,7.59-.72c1.43,0,2.9-.12,4.39-.29C538.7,316,553.12,310,562.5,297.95c10.94-14,13-31.12,14-46.08.71-9.87.47-19.28.23-28.37l0-2c-.14-5.39-.28-10.52-.22-15.6a23.7,23.7,0,0,1,3.18-.16l2,.06a79.14,79.14,0,0,0,26-3.17,59.71,59.71,0,0,0,7.28,4.08c-1.17,15-2,32.37-.23,48.63,3.76,43.38,25.76,68.26,60.35,68.26,1.86,0,3.72-.12,5.9-.26,22.28-1.73,39.1-15.74,47.26-38.89,12.12,33.59,34.51,38.91,47.45,38.91a52.58,52.58,0,0,0,14.15-2,57.73,57.73,0,0,0,18-8.57,23.24,23.24,0,0,0,9.54-7.56c1.25-1.69,2.5-3.39,3.28-4.61a80,80,0,0,0,10.6-17.88,88.81,88.81,0,0,0,48.44,33.06,119.27,119.27,0,0,0,39.31,7.06h1.42c24.48,0,57.54-8.35,79.21-31.49a46.75,46.75,0,0,0,37.52,25.3c18.84,1.7,36.12-4.56,46.76-16.86a44.2,44.2,0,0,0,4.6-6.28c11.16,21.4,29.61,30.38,52.24,24.3a53.57,53.57,0,0,0,16.85-8.2,18,18,0,0,0,8.25-6.33c1.33-1.78,2.59-3.55,3.3-4.68,8.6-10.63,14.59-25.07,16.77-40.26A87.66,87.66,0,0,0,1197.69,274l-1.24,3.5,7.94,8c22.43,22.74,56.06,35.78,92.27,35.78A147.49,147.49,0,0,0,1351.2,311c32.8-13.27,56.49-40.67,61.91-71.56l.22-.55c.32-.8.64-1.61.83-2.28C1428.34,193.7,1415.8,152.37,1415.26,150.63Zm-491.9,52a16.16,16.16,0,0,1-5.68-1.12l.87-.49A17,17,0,0,1,923.36,202.67Z"/><path class="cls-2" d="M952,184.45a1.67,1.67,0,0,0,1.72,1.36c8.95-.36,16.83-3.32,24.59-9.13l.24-.24a39.13,39.13,0,0,0,12.86-9.3c.18-.24,3.38-5.45,2.49-7.41a1.41,1.41,0,0,0-1.3-.89l-4.56,1-8.53,1.9c1.36-2,3.14-5.45,2.67-6.87a1.44,1.44,0,0,0-1.36-1l-.41.06-2.37.47a51.15,51.15,0,0,0,4.33-3.56c.47-.47,4-5.39,3.2-7.64a1.68,1.68,0,0,0-1.54-1.13l-2.55-.06c.47-1.84.18-2.25,0-2.49l-.36-.53h-.59l-.3.06c.59-1.6.41-2.37.18-2.84a1.69,1.69,0,0,0-1.48-.83A215.06,215.06,0,0,0,954.7,137l5.1-2.43c1.42-.71,4.5-6,4-8.06a1.56,1.56,0,0,0-1.66-1.3c-22.58.3-44.15,6.93-65.06,13.33-6.87,2.07-13.81,4.27-20.86,6.16a194.31,194.31,0,0,1,36-13.51c6.16-1.42,12.56-2.67,18.78-3.85,4.33-.83,8.59-1.66,12.86-2.55,2.49-.53,5-6.28,4.74-8.3a1.52,1.52,0,0,0-1.66-1.54h0a244.88,244.88,0,0,0-38.16,8c-15.76,4-36,10.67-52.32,27.08-.36.36-3.79,5.69-3,7.53a1.33,1.33,0,0,0,1.3.89l.36-.06c3.56-.71,7.11-1.54,10.67-2.43a17.38,17.38,0,0,0-1.78,3.44c-6.34,1.9-14.58,4.33-22.87,6.58-2.49.65-4.56,6.46-4.38,8.18a1.38,1.38,0,0,0,1.36,1.24h.3l8.12-2.19c-1.6,1.13-3.14,2.31-4.62,3.5-.59.47-4.33,5.57-3.56,7.64A1.48,1.48,0,0,0,840,185.4l2.55-.06c-.36,1.24-.41,2.13-.06,2.61l.36.47h.95c3.79-1.24,7.94-2.49,13-3.85,7.7-.59,15.7-1.54,25.42-2.9,1.54-.24,2.73-2.61,3.26-3.91l3.26-.65,7.94-1.78c-12.56,8.71-27.85,12.44-42.6,16.06-6.52,1.54-13.27,3.2-19.61,5.27-2,.65-4.56,6-4.27,7.7a1.45,1.45,0,0,0,1.54,1.3c5.69-.53,11.44-1.3,16.95-2,6.34-.77,12.74-1.66,19.2-2.25-3.67,1.66-7.47,3.14-11.2,4.62a167.68,167.68,0,0,0-17.36,7.64l-.47.18c-1.72.95-3.73,6.46-3.38,7.82l.3.95h.83l.47-.12c4.5-1.84,9.07-3.44,13.81-4.86l-.53.24c-4.15,1.9-8.53,3.85-12.74,6-2,.95-4.09,6.64-3.73,7.88l.24,1h.89l.47-.12a159.41,159.41,0,0,1,26.9-8.71c-3.5,1.72-7,3.32-10.43,4.92-4.74,2.13-9.6,4.38-14.28,6.76-2.25,1.07-4.15,6.87-3.85,8.12l.3.95h.83l.47-.12c2.73-1.19,5.51-2.37,8.41-3.5-1.9,1.6-3.73,6.4-3.38,7.76a1.21,1.21,0,0,0,1.19,1l.41-.12c4-1.54,8.12-2.84,12.27-4a101.11,101.11,0,0,0-15.47,8.53c-1.19.83-4.38,6.58-3.79,8.41a1.32,1.32,0,0,0,1.3,1l.47-.06c10.31-2.84,20.21-7.17,29.81-11.44-3.61,2.43-7.35,4.86-11,7.23-1.66,1.07-4,6.46-3.5,8.12a1.39,1.39,0,0,0,2.25.71,149.89,149.89,0,0,1,27.91-14.34l-3.2,1.6c-8.89,4.44-18,9-26.78,14.1-1.54.89-4.09,6-3.61,7.88a1.49,1.49,0,0,0,2.25.89l10.19-5-2.31,1.54c-1.36,1-3.61,6.46-3.2,7.82l.36.83H857l.24-.12c9.07-4.44,18.19-9.13,27-13.69,9.36-4.74,19-9.72,28.5-14.34l5.69-2.37c-9.72,4.68-19.32,9.48-28.8,14.16l-12,6c-1.19.65-2.13,2.49-2.73,4.15-2.07.83-3.85,1.6-5.51,2.43s-4.33,6-4,7.7a1.33,1.33,0,0,0,1.3,1.13l.3-.06a161.17,161.17,0,0,0,15.64-4.09c-.59,1.48-1.13,3.2-.59,4.09a1.27,1.27,0,0,0,1.13.65l.47-.12c5.51-1.84,11.08-3.85,16.53-5.87-1.78,1.72-3.73,6.16-3.32,8a1.61,1.61,0,0,0,2.43,1.13,247.16,247.16,0,0,1,25.54-9.9c-.47.47-1.07.95-1.66,1.48a15.86,15.86,0,0,0-2.78,2.84c0,.06-2.9,4.8-1.9,6.7a1.51,1.51,0,0,0,1.48.89h.24c16.35-2,39.94-10.25,52.8-27.2.06,0,3.56-5.87,2.61-7.82a1.55,1.55,0,0,0-1.9-.71l-11.5,3.26-3.08.89c5-2.49,10.25-5,15.52-7.58,2.07-1,4-6.34,4.21-8.24v-.41c1.84-1.36,3.5-2.73,5.1-4.09.83-.77,3.79-6.22,3.08-8a1.64,1.64,0,0,0-2.43-.71c-8.18,4.38-16.53,8.24-25.72,12.21,3.2-2.19,6.28-4.44,9.18-6.7l3-1.42a6,6,0,0,0,2.43-3c3.56-3,6.34-5.51,8.83-8,.47-.47,3.56-5.63,2.9-7.35a1.31,1.31,0,0,0-1.24-.89l-.47.06c-3.56,1.07-7.29,2.19-11.32,3.56.77-1.72,1.6-3.85,1.13-4.74a1.27,1.27,0,0,0-1.13-.65l-.53.12c-12.38,5.39-25,10.73-37.27,15.88-6.64,2.78-13.21,5.57-19.79,8.41.53-1.36.89-2.67.41-3.5a1.51,1.51,0,0,0-1.36-.83h-.18a105.83,105.83,0,0,0-18.72,4c1.24-1.19,3.79-6.22,3.38-7.82a1.39,1.39,0,0,0-1.3-1l-.41.12-2.37.65c1.24-2,2.84-5.57,2.43-6.81a1.4,1.4,0,0,0-1.24-.89l-.53.12c-4.8,1.9-9.66,3.44-14.81,4.92,1.66-.95,3.14-1.9,4.62-2.78,1.3-.77,3.91-6.16,3.44-7.7a1.2,1.2,0,0,0-1.19-1l-.47.06-2.37.77.65-.47c.83-.65,4.21-6,3.61-7.94a1.39,1.39,0,0,0-1.36-1l-.36.06c-4,.77-7.35,1.48-10.49,2.19l.18-.18c1-.71,4.21-5.93,3.61-7.76a1.5,1.5,0,0,0-1.13-1c1.48-1,3-2.07,4.27-3.14.59-.47,4.33-5.51,3.61-7.64a1.53,1.53,0,0,0-1.6-1l-5.57.12a76,76,0,0,0,18.72-10.43c1.19-.95,3.14-5.33,2.84-6.81,5.16-1.19,10.31-2.37,15.41-3.67l1.19-.3c3.91-1,8-2,12.09-3.14-.65,1.42-1.24,3.14-.71,4.09a1.54,1.54,0,0,0,1.54.83c4.92-.59,10-1.3,15.47-2.25-1.3,2.07-2.31,4.74-2.13,6a1.52,1.52,0,0,0,1.72,1.36c4.15-.47,8.35-1.13,12.33-1.78l-1,.41C955,176.63,951.62,182.26,952,184.45Zm-52.26-38.28c10.19-3.08,20.62-6,31.11-8.06-6.7,2.31-13.69,4.5-20.86,6.46C906.52,145,903.15,145.58,899.77,146.17Zm-1.42,16.24c-13.39,3.79-27.55,8.12-41.3,13.33l-2.19.12C868.36,168.57,883.06,164.9,898.35,162.41Zm70.87-11c-1.07.47-2.19.89-3.26,1.3l2.13-1.36Zm-39,129.18c8.83-2.78,17.72-5.27,26.49-7.76a86.63,86.63,0,0,1-26.61,10A7.38,7.38,0,0,0,930.23,280.62Z"/><path class="cls-2" d="M279.66,208.09l.47-.41c1.13-.95,4.86-7.41,3.85-10.25-.59-1.6-2.25-2.25-4.15-1.36-6.46,3.08-13,6.64-19.79,10.61a105.06,105.06,0,0,0,8.35-11.55c.06-.06,3.32-5.69,1.9-8.3-.71-1.3-2.31-1.78-4.09-.95l-2.84,1.6c.77-2,1.19-3.91.89-5.1a2.63,2.63,0,0,0-4.09-1.48L253.24,185c.89-2,1.42-4.15.95-5.39a2.24,2.24,0,0,0-1.07-1.36c1.3-2.25,2.73-5.45,2-7.29-.65-1.42-2.19-2.07-4-1.24l-6.22,2.73,2.25-1.84c1.24-1.07,4.44-7.64,3.67-10a2.54,2.54,0,0,0-2.19-1.66c.95-2.07,1.66-4.38,1.24-5.63a2.65,2.65,0,0,0-4-1.42c-4.8,2.61-9.72,5.1-14.52,7.58.65-1.84,1.07-3.73.65-4.8a2.61,2.61,0,0,0-4.09-1c-2,1.36-4.15,2.73-6.22,4,.83-2,1.42-4.15.95-5.39a2.54,2.54,0,0,0-4-1.07l-6,3.79c.71-1.3,2.55-5.39,1.6-7.35a2.47,2.47,0,0,0-3.32-1c-4.33,2-8.77,4.27-13.45,6.87a2.62,2.62,0,0,0-.36-.95,2.31,2.31,0,0,0-2-1.13l-.59.06-.36.12c-6.28,2.43-12.8,4.62-19.08,6.64l-8.24,2.73c-2.67.89-4.86,6.58-4.56,8.53a2.35,2.35,0,0,0,2.25,2.07l.53-.12,5.39-1.19-2,1.48-5.87,4.38c-1.78,1.3-4.68,7.53-3.91,9.84a2.5,2.5,0,0,0,3.91,1.13c7-5,14.64-10.31,22.75-15.47-3.79,3-7.64,5.81-11.5,8.65l-7.05,5.21c-1.6,1.24-4.8,7.47-4,9.9a2.58,2.58,0,0,0,4,1.24l3.61-2.31a3.9,3.9,0,0,0,.12,2.07l.24.41c-1.3,2.49-2.37,5.81-1.84,7.29a2.45,2.45,0,0,0,4,1c1.9-1.48,3.85-3,5.93-4.5-.83,2-1.36,4.15-.89,5.33a2.6,2.6,0,0,0,4,1.13l8.71-5.27,2.43-1.54c-.71,2-1.19,3.85-.89,4.86A2.45,2.45,0,0,0,194.4,207L195,207l.41-.12c4.09-1.72,8.18-3.5,12.21-5.39-1.36,2.43-2.61,5.57-2.13,7.23a2.54,2.54,0,0,0,2.43,1.78l.77-.12c2.9-.89,5.75-1.9,8.47-3-3.32,3.2-6.58,6.34-9.72,9.48-.89.89-4.56,7.29-3.44,10a2.34,2.34,0,0,0,1.19,1.3c-.36.24-.71.47-1,.71-4.27,3.61-8.83,7.11-13.45,10.49.65-1.78,1.13-3.73.59-4.92a2.44,2.44,0,0,0-1.24-1.3c.47-1.54.77-3,.36-4-.59-1.48-2.43-2-4.09-.89l-11.5,7.7-1,.65a15,15,0,0,0,1.6-5.1c3.85-3.14,7.05-5.93,9.9-8.59.77-.65,3.85,7.35,3.85,7.35l-.18-.36a2.58,2.58,0,0,0-3.38-1.42c-10.61,4.15-21.87-8.41-32.95-3.26a3.3,3.3,0,0,0-.41-1.6,2.81,2.81,0,0,0-3.79-.77l-2.84,1.48c.89-2,1.42-4.09.95-5.33-.65-1.54-2.31-2.13-4.09-1.19l-3.61,1.9-.18-.3a2.49,2.49,0,0,0-2.07-1.13l-.47.06c.77-1.9,1.3-3.91.83-5.1-.53-1.48-2.31-2.07-4-1.07l-.53.36c1.13-1.54,4.09-6,3.08-8.59a2.81,2.81,0,0,0-2.73-1.66l-2,.12c1.24-2.07,2.78-5.21,2.07-7a2.63,2.63,0,0,0-2.43-1.66l-.47.06-1.54.24c1.19-1.9,3.56-6,2.67-8.18a2.63,2.63,0,0,0-2.25-1.54c1-1.9,2.07-4.62,1.36-6.22a2.48,2.48,0,0,0-2.25-1.42l-.83.06-1.6.47a46.27,46.27,0,0,0,3.91-3.61,22,22,0,0,0,2.43-4.38l2-1.19-1.78.59c.65-1.6,1-3.2.59-4.15a2.54,2.54,0,0,0-1.6-1.42c2.13-1.9,4.15-3.79,6-5.75,0-.12,4.38-6.28,3.26-9.07a2.31,2.31,0,0,0-.83-1c9.6-5,18.13-9.84,26.19-14.7,1.9-1.13,4.09-5.87,4.21-8.53,5.75-2,11.5-4,17.12-6a6.64,6.64,0,0,0-.65,3.5,2.34,2.34,0,0,0,2.31,2l.65-.12,6.58-1.9c5.81-1.72,11.79-3.5,17.66-5.39l-.47.18c-2.49,1.24-5.16,7.64-4.8,9.66-1.48,3.67-.77,4.8-.53,5.21a2.47,2.47,0,0,0,2,1.07h.41l.3-.06c5.69-1.9,11.61-3.44,17.42-5l5-1.36-1.6.77c-2.37,1.13-5.1,7.58-4.62,9.78a2.46,2.46,0,0,0,2.43,2l.65-.06c3.08-.89,6.16-1.78,9.07-2.73,4.92-1.48,10-3,15.05-4a4.56,4.56,0,0,0,.47,2.84,2.51,2.51,0,0,0,2.19,1.24c1.66,0,2.84-1.42,3.91-3a27.36,27.36,0,0,0,4.62-9.9,3.67,3.67,0,0,0-.47-3.32,2.76,2.76,0,0,0-2-1l.65-.53a22.68,22.68,0,0,0,3.32-4.86c2.43-1.48,4.62-3,6.76-4.56,1.19-.89,4.86-7.17,4.09-9.54a2.53,2.53,0,0,0-2.31-1.72l-.47.06-.3.06c-3.2.95-6.4,1.9-9.48,2.67,1.13-2.07,2.31-4.8,1.66-6.46a2.52,2.52,0,0,0-2.37-1.6l-.65.12L259.16,93l.65-.53c.95-.83,4.38-6.76,3.44-9.18a2.37,2.37,0,0,0-2.31-1.66l-.47.06-.3.06-3.44,1c1.19-2,2-4.38,1.72-5.81a2.75,2.75,0,0,0-2.78-2.13c-1.9.06-3.73.24-5.69.47.59-1.66.95-3.44.36-4.5a2.25,2.25,0,0,0-2-1.19h-.65l-.41.18C242,72.1,236.59,74.36,231,76.67L232,75.54c.06,0,4-5.57,3-8.12a2.37,2.37,0,0,0-2.25-1.54l-.59.12-1.72.41c1.3-2.19,2.61-5.21,2.13-6.7a2.33,2.33,0,0,0-2.25-1.66l-.77.06c-7.7,2.31-15.58,4.62-23.35,6.76a5.16,5.16,0,0,0,.36-3.91,2.64,2.64,0,0,0-2.61-1.66c-28.44,1.9-55,14.7-80.71,27.14-5.75,2.78-11.73,5.69-17.54,8.3-2.25,1.07-3.61,4.68-4.21,6.46-7,3.44-13.33,6.81-19.32,10.25-2.13,1.3-4.44,7.35-4,9.3l.53,1.72h2.19l1.36-.59.65-.3a7.27,7.27,0,0,0-.36,2.49,2.36,2.36,0,0,0,2.31,2.19l.47-.06,4.5-.95a3.59,3.59,0,0,0-.83,1l-3.61,1.24c-2.9,1.07-4.92,7.23-4.62,9.07a2.34,2.34,0,0,0,2.25,2h.41l.3-.12c7.94-2.67,15.94-5.21,23.88-7.82l-4.44,2.25c-8.95,3.26-19.08,7-27.85,12.74-1.66,1.07-4.8,7.29-4.15,9.54a2.4,2.4,0,0,0,2.31,1.78H74l.36-.12c2.37-.83,4.8-1.72,7.17-2.67-1.54,2.25-3,6-2.49,7.76a2.29,2.29,0,0,0,2.31,1.78,2.69,2.69,0,0,0,1.54-.53,345.89,345.89,0,0,1,35.49-19.73c10.07-4.56,20.5-8.47,30.63-12.15-20,11-40.77,20.62-61,30C79.92,165,71.8,168.81,63.8,172.6c-2.55,1.24-5,7.76-4.5,9.9a2.34,2.34,0,0,0,2.31,2h.47l.41-.12c7.05-2.61,14.22-5.39,21.09-8.06,8.95-3.56,18.07-7.05,27.32-10.31-6.22,3.32-12.68,6.28-19,9.13-7.17,3.32-14.58,6.64-21.45,10.49-2.07,1.13-5,7.05-4.38,9.54a2.59,2.59,0,0,0,2.49,2c-1.72,1-3.38,2.07-5.1,3.2s-4.62,7.58-4,9.66a2.35,2.35,0,0,0,2.25,1.66h.59l.36-.18c7.47-3.14,15.23-6.34,23.17-9.42l-8.65,4.56-2.49,1.3c-2.13,1.19-4.8,7.53-4.27,9.54a2.39,2.39,0,0,0,2.31,1.9h.47l.3-.12c2.43-.83,4.8-1.6,7.11-2.49A9.13,9.13,0,0,0,79.8,221,2.23,2.23,0,0,0,82,222.79h.47l.41-.18c2.78-1.19,5.57-2.49,8.3-3.79l-3.14,2c-1.9,1.19-4.8,7.17-4.09,9.54a2.56,2.56,0,0,0,3.85,1.42L92.6,229c7.35-4.38,14.93-8.89,22.81-11.67-3.32,2.73-6.58,5.21-9.84,7.47a55,55,0,0,0-10,6.34c-1.24.95-4.86,7.17-4,9.66A2.57,2.57,0,0,0,95.5,242l.3-.18a4.06,4.06,0,0,0-.06,2.37,2.58,2.58,0,0,0,3.91,1.36l.83-.47c-.65,1.72-1,3.5-.59,4.56.53,1.54,2.31,2.19,4,1.13l5.21-3.08a17.75,17.75,0,0,0-1,3.38L106,252.77l-1.07.53v.36c-1.48,1.42-4.38,7.35-3.56,9.72.53,1.66,2.31,2.31,4.09,1.36a148.8,148.8,0,0,0,12.92-8.12c-1.42,2.25-3.44,6.52-2.67,8.59.65,1.54,2.25,2.19,4.09,1.24,2.49-1.24,4.92-2.49,7.29-3.79-1.07,2-2.61,5.75-1.78,7.58a2.51,2.51,0,0,0,2.31,1.54,4,4,0,0,0,2.55-1.19l.59-.47a6.21,6.21,0,0,0-.3,3.5,2.55,2.55,0,0,0,4,1.13l4.62-3.2c-1.48,2-3.56,6.87-2.78,8.95a2.5,2.5,0,0,0,2.37,1.6,3.83,3.83,0,0,0,2.55-1.19l5.57-5,2.31-2-1,1.19c-.47.59-3.61,6.4-2.49,8.95a2.64,2.64,0,0,0,3.32,1.24,2,2,0,0,0,.36.89,2.37,2.37,0,0,0,2,1.19,4.1,4.1,0,0,0,2.67-1.3c5.81-5.51,12-10.84,18-16l-1.9,2.31c-.06,0-4,6.7-2.67,9.42.65,1.48,2.43,2,4.15.89l12-7.58,5.57-2.84a19.6,19.6,0,0,0-2.37,7.29v.18c-1.66,2.37-4.09,7.35-3.2,9.6A2.5,2.5,0,0,0,186,291a3.1,3.1,0,0,0,1.66-.47c10.25-5.75,20.56-12.15,30.69-19.14,8.3-4.38,16.89-8.53,25.18-12.56,5.1-2.49,10.13-4.92,15.17-7.47,2.61-1.24,5.63-7.94,5-10.78a2.64,2.64,0,0,0-2.9-2.19c1.13-1.19,4.09-6.4,3.85-9.36,4.56-3.5,8.41-6.46,12-9.3,1.54-1.24,4.68-7.76,3.79-10.37A2.71,2.71,0,0,0,279.66,208.09ZM176.09,84.43l-16.3,6.46C143.62,97.35,127,104,110,109.43c11.2-5,22.4-10,33.48-14.75C154.22,91.07,165.24,87.63,176.09,84.43Zm32.83,142.8c10.84-8.53,22.52-16.77,34.78-24.59l-2.78,2.49-.71.71a326.22,326.22,0,0,1-30.28,23.94l-.59.36a2.39,2.39,0,0,0-.36-1.3,2.59,2.59,0,0,0-1-.95A3.39,3.39,0,0,0,208.91,227.23ZM149.3,238.37l-.3.18-1,.36Z"/><path class="cls-3" d="M803,248.86a2.66,2.66,0,0,0-2.25-2l-3.14-.12.95-.65c1.3-.89,5.1-6.87,4.27-9.54a2.54,2.54,0,0,0-2.43-1.84l-.47.06-1.13.18c2.84-2.43,5.57-5.33,5.1-7.05a2.34,2.34,0,0,0-2.37-1.78c-.65.06-1.84.36-5.45,1.19l-3.26.77a64.41,64.41,0,0,0,8.71-3.26c2.49-1.36,2.73-8.06,2.19-10.07-.59-2.49-2.37-2.67-3-2.67h-.3a99,99,0,0,0-10.19,2,52.39,52.39,0,0,0,6.58-3.79c1.24-.83,5.21-6.93,4.38-9.6a2.64,2.64,0,0,0-.71-1.24c1.54-2.31,2.73-5.39,2.49-7a2.67,2.67,0,0,0-2.61-2.31l-.3.06-1.13.06v-.83c2-1.78,4.56-6.81,4-9.13a2.71,2.71,0,0,0-2.61-2.13h-.24c.83-1.84,1.42-3.85.95-5.16a2.63,2.63,0,0,0-2.43-1.66l-.47.06-2.37.41,1.13-.95c.65-.53,5.45-6.52,4.38-9.66a2.83,2.83,0,0,0-2.73-1.9h-3.44c.95-1.78,1.72-3.79,1.19-5.21a2.58,2.58,0,0,0-2-1.6c1.3-2.31,2.37-5.1,2-6.64a2.72,2.72,0,0,0-2.67-2.19h-.36c-4.09.47-8.24.89-12.33,1.24-9.36.83-19.14,1.72-28.56,4-2.49.59-4.15,3.79-4.86,5.75-2.73,2-5,7.23-4.56,9.6a2.87,2.87,0,0,0,1.66,2.31c-1.9,2.37-3.2,6.28-3,7.94a2.54,2.54,0,0,0,1.07,1.78l-1,.41c-2.37,1-5.75,7.35-5.21,9.9a2.54,2.54,0,0,0,2.49,2.13l.47-.06,3.26-.47a9.83,9.83,0,0,0-1.24,4.68,2.93,2.93,0,0,0,1.72,2.49c-1.9,2.19-3.85,6-3.73,7.88a2.78,2.78,0,0,0,2.25,2.55,89,89,0,0,0,12.27,1.13,27,27,0,0,0-6,2.67c-2,1.19-1.19,4.21-.95,5.16.3,1.13,2,6.52,5.69,6.52l1.07-.06c-1.36,2.07-2.67,4.86-2.31,6.46a2.66,2.66,0,0,0,2.31,2l1.24.12c-2,2.31-3.44,6.28-3.2,7.94a2.51,2.51,0,0,0,1.42,1.9l-1.6.77c-2.13,1.07-5.27,7.23-4.74,9.42a2.36,2.36,0,0,0,2.37,2l.59-.06.83-.18a5.78,5.78,0,0,0-.41,4,2.63,2.63,0,0,0,2.31,1.42h.41c1.54-.24,3.14-.47,4.68-.77l-2.55,1.19c-2.84,1.24-5.16,7.76-4.74,9.72a2.23,2.23,0,0,0,2.25,1.84h.47l3.85-1.48,2.43-.95c-2,1.78-4.5,7-4,9a2.45,2.45,0,0,0,2.31,1.9l4-.95,8.12-2-.47.12-4.15,1.78c-2.67,1.19-5,7.47-4.56,9.36a2.24,2.24,0,0,0,2.25,1.9h.41l.36-.18a57.18,57.18,0,0,1,16.35-3.73c-.59,1.66-.95,3.38-.41,4.38l.65,1.19h1.78l.41-.24a35,35,0,0,0,10-6.1c.3-.24,4.27-5.57,3.5-8.24A2.46,2.46,0,0,0,794,272.8l-.89-.12a62.07,62.07,0,0,0,6.28-5.16c.3-.3,4.38-5.93,3.26-8.65a2.52,2.52,0,0,0-2.37-1.6h-.41l-.65.12C800.69,255.68,803.54,251.11,803,248.86Z"/><path class="cls-4" d="M805.26,98.53c-9.3,1.24-18.55,3-27.85,4.56a128.78,128.78,0,0,0,20-12.86c.83-.65,4.68-7.58,2.84-7.17s-3.44.89-5.16,1.36l1.84-.83c1.36-.59,5.51-7.17,3.32-7.35a53.09,53.09,0,0,0-15.64,1.24c1.48-.83,2.9-1.72,4.33-2.67,1.07-.71,4.5-7.58,2.84-7.17a195.18,195.18,0,0,0-35.61,13.81,17.52,17.52,0,0,1,.71-2.67c3-7.29,14.75-7.7,21-7.11,2.49.3,5-7.41,4.09-7.53-14-1.3-26.49,6.46-29.75,19.2-1.66,1.07-4.44,7.94-2.31,6.87l1.48-.71v.24c-1.3,2.19-3.14,6.22-1.9,5.81l2.31-.83a20.9,20.9,0,0,0,1.72,5.45c-.89,2-1.54,4.15-.65,4l2.61-.71a24.77,24.77,0,0,0,4.92,5c-1.07,2.07-1.84,4.38-.77,4.21,2.13-.24,4.21-.59,6.34-.89l.24.06c11.91,5,25.72-.47,36.26-6.28C803.6,104.93,807,98.29,805.26,98.53Zm-46.1-3.2a15.12,15.12,0,0,1-1.48-2.73c8-3,16-6,24.29-7.7C774.33,88.28,766.68,91.78,759.16,95.33Zm7.82,7.76a24.87,24.87,0,0,1-3-2.13c6.1-1.9,12.15-4.15,18.31-6.22C777.23,97.58,772.07,100.31,767,103.09Z"/><path class="cls-5" d="M591.46,129c-1.84,1.07-3.79,2.25-5.69,3.5.3-1.42.65-3.2.06-4-.41-.59-1.13-.59-2.07.06-5,3.61-10,7.11-14.34,10.07a123.11,123.11,0,0,0,8.59-10.9c.24-.36,2.9-5.33,2-7.11-.36-.65-1.07-.83-2.19-.41a83.38,83.38,0,0,0-18.49,11.5l2.61-3c.53-.65,3.44-6.4,2.67-8.12-.3-.71-1-.83-2-.3a219.67,219.67,0,0,0-22.81,14.28c.65-1.48,1.24-3.56.71-4.44-.41-.59-1.24-.59-2.43.41-3.08,2.61-6.16,4.86-8.95,6.81l2.13-3.08c.18-.24,2.49-5.21,1.72-6.64-.3-.59-.95-.71-1.84-.12l-1.48.95q1.78-1.78,3.38-3.56c.47-.47,3.26-5.57,2.55-7.23-.3-.59-.95-.77-1.84-.36l-6.64,2.9-4.62,2.07a38.53,38.53,0,0,0,2.78-6.93c.12-.36.59-2.19,0-3-.36-.53-1-.59-1.78-.12l-3,1.84c-7.76,4.62-15.76,9.42-23.35,14.7-1.42,1.07-3.79,6.58-3.32,7.94.18.59.77.77,1.48.36,6-4.09,12.44-7.88,18.67-11.5l3-1.84a17.64,17.64,0,0,1-1.19,1.72c-9.18,4.56-20.38,11.26-26.13,23.05-.12.24-1.13,3-.47,4.15.3.53,1,.59,1.78.06l.83-.53c3.08-2.19,6.28-4.38,9.3-6.7a81.55,81.55,0,0,0-6.16,6.58c-.47.59-3.08,6-2.37,7.47.3.59.95.71,1.78.18,5.81-3.79,11.73-7.76,17.42-11.55l1.48-1-4.62,4A77.71,77.71,0,0,0,494,164.78c-.71.95-2.84,6.34-2.13,7.82a.64.64,0,0,0,.47.47c-1.13,2.07-2.13,5-1.6,6.16.41.77,1.3.83,2.55-.18,5.16-4,10.31-8.18,15.29-12.21,11.61-9.36,23.52-19,36.2-27.38-5,5.27-9.78,10.07-14.52,14.58-11.26,7.88-25.84,18.55-38.87,31.17-.83.77-4,7.05-3.32,8.77.3.71.95.89,1.9.3,13.81-8.41,27.55-19.38,42-33.48l1.13-.71,1.9-1.24a144.32,144.32,0,0,0,15.82-12c4.15-3.38,8.41-6.93,12.86-10-10.73,11.26-23.41,20.74-35.67,30-12,9.07-24.41,18.37-35,29.21-1.19,1.24-3.91,7.64-3.2,9.36a1,1,0,0,0,.89.65,2.9,2.9,0,0,0,1.78-1c13-12.21,27.2-22.93,41-32.83l-12.8,11.14c-8.95,7.88-18.25,16-27.61,23.64-1.48,1.24-4,7.88-3.44,9.6.24.71.89.89,1.66.53l-.12.3,1.19-1.13-2.73,2.84c-1.36,1.36-3.85,7.76-3.2,9.42a1,1,0,0,0,.89.59,2.9,2.9,0,0,0,1.78-1l1.42-1.3c-1.42,1.72-2.78,3.5-4.21,5.33l-.24.3h0l-.06.12-.47.65a9,9,0,0,0-1.3,2.73l-.18.18-.24.36c-.59.65-3.32,6.34-2.55,8,.24.65.95.77,1.9.24A279.49,279.49,0,0,0,505.9,228c7.58-6,15.41-12.21,23.76-17.42a153.31,153.31,0,0,1-16.18,15.82,208.23,208.23,0,0,0-21.15,17.18c-1.07,1-3.85,6.52-3.14,8.24a.76.76,0,0,0,.3.41c-1.72,1.48-4.27,7.58-3.73,9.3.24.71.89.95,1.78.36,7.76-5.21,14.7-9.9,21.63-15l2.55-1.78c-5.39,5-10.84,10.07-16.06,15.35-.95,1-4,7-3.26,8.71.36.83,1.24.89,2.67-.24l1.48-1.19c-1.13,2.07-2.9,6.1-2.37,7.41.24.65.95.83,1.84.24l5.93-3.56c-1.9,1.9-3.67,3.79-5.33,5.81-.41.53-3.2,6.34-2.49,7.88.36.65,1,.77,1.9.18a223.39,223.39,0,0,0,27.85-22.52l2.55-1.48c-3.38,3.32-7,6.64-10.9,10a74.07,74.07,0,0,0-7.11,6c-1.07,1-3.91,6.76-3.2,8.47a.89.89,0,0,0,.89.59,2.89,2.89,0,0,0,1.66-.77c2-1.6,4.09-3.32,6.64-5.51,3.56-2.61,7.35-4.92,11-7.11-1.13,1.07-2.37,2-3.61,3-1.6,1.19-4.09,7.35-3.61,8.89.24.59.89.77,1.6.24a67,67,0,0,0,19-21.45c.06-.06,2-4.15,1.13-5.57-.36-.59-1-.71-2-.18l-2.31,1.24c1.78-2.07,3.5-4.09,5.1-6.1.3-.41,3.44-6,2.61-7.76-.3-.65-1-.83-2-.3l-2.07,1.07c.71-1.72,1.66-4.38,1.13-5.27-.36-.47-.95-.59-1.66,0-4.21,3-8.53,5.75-12.33,8.06a64.81,64.81,0,0,0,12.38-16s1.9-4.27,1.07-5.63a1,1,0,0,0-.83-.53l5-5.16c.71-.77,3.14-6.52,2.43-8.06-.24-.71-.95-.83-1.84-.18l-2.73,2-.24.18c.95-2,2.19-5,1.66-6.16-.3-.65-1-.77-2-.3-2.49,1.3-5,2.67-7.7,4.21a111.58,111.58,0,0,0,7.82-10.73,19,19,0,0,0,2-5.1l3.5-1.9c13.27-7.35,29.86-16.47,35.73-31.46.06,0,1.3-3.44.53-4.62a1.05,1.05,0,0,0-1.36-.3l-4.5,1.84c.83-1.13,3.61-6.46,2.78-8.3a1,1,0,0,0-.47-.53,96.76,96.76,0,0,0,12.21-15c.36-.47,3-6.52,2-8.35C593.48,128.4,592.65,128.28,591.46,129Zm-76.14,4.74-.95.77-2.25,1.78,1.72-1.78Zm-5.39,24.06-6.46,5.33,3.85-3.44Zm44.15,25.48,5-4.33c3.5-1.9,7.05-3.73,10.73-5.45a108.32,108.32,0,0,1-9.78,6.22l-3.38,2Zm-43.14,52.86c3.44-2.49,7.05-4.86,10.67-7.11-4.74,4-10.13,8.06-16.65,12.62l-5.21,3.61C503.47,242.23,507.26,239.2,510.94,236.12Z"/><path class="cls-5" d="M469.16,186.88a6.09,6.09,0,0,0-4.27,2.25q-2,2-4.09,4.44c.36-1.84.59-3.61.83-5.33a4.18,4.18,0,0,0-.77-3.32,3.29,3.29,0,0,0-3.26-.89,155.11,155.11,0,0,0,4.27-15c.36-1.84.36-3-.12-3.56a1.22,1.22,0,0,0-1.07-.47c-1.78,0-4.68,3.38-5.63,5.39a95.45,95.45,0,0,0,5.33-19.67c.36-2.25.06-4-.83-5s-2.55-1.19-4.33-.3a74.42,74.42,0,0,0,1.6-7.47,5.92,5.92,0,0,0-.77-4.92,2.91,2.91,0,0,0-3.38-.77,115.07,115.07,0,0,0,2.61-14c.18-1.54,0-2.67-.65-3.32a2,2,0,0,0-1.66-.71c-2.07,0-4.86,2.13-6,3.61l-.95,1.24.24-2.37c0-.24.06-2.37-.89-3.32a1.56,1.56,0,0,0-1.66-.47,18,18,0,0,0-3.32,1.07,1.42,1.42,0,0,0-.89-.12c-10.13,1.07-18.19,8.65-23.52,14.64a2.29,2.29,0,0,0-2.07-1.42,5,5,0,0,0-3.38,1.9L409,130.53,402.68,137a82.93,82.93,0,0,0,4.21-14.87,3.18,3.18,0,0,0-.47-2.73c-.89-1-2.55-.95-4,.18-2.25,1.78-4.5,3.73-6.81,5.93l.65-2.78c.18-.83.53-2.9-.41-4-.71-.95-2-.89-3.56.24a64.31,64.31,0,0,0-5.21,4c.89-2.31,1.19-4.86.53-6.1a1.63,1.63,0,0,0-1.3-.89c-1,0-2.19,1-3.61,3.08-4.21,6.16-9.07,12-13.75,17.78-6.22,7.58-12.62,15.47-17.84,24.06-3.56,5.87-6.58,12.09-9.54,18.13l.18-.77,1.19-4.8.77-3.44c2.55-3.91,5.21-7.76,7.76-11.5,5.81-8.47,11.85-17.24,16.89-26.61,0-.06,2.37-5,1.3-6.81a1.42,1.42,0,0,0-1.66-.65c-7.23,1.3-13.51,5.87-18.67,13.63,1.48-3.08,2.78-5.93,3.91-8.59.89-2,1.07-3.32.65-4a1.08,1.08,0,0,0-.95-.47c-1.48,0-4,2.37-5.16,4.8L345.32,135a5.43,5.43,0,0,0,.41-2.84c-.18-.71-.89-1-1.72-.47-16.12,9.72-27.85,23.82-38.16,45.86a8.65,8.65,0,0,0-.77,2c-1.9,2.84-3.73,5.69-5.33,8.41-.77,1.19-1.9,5.21-1.07,6.76.53,1,1.72,1,3.32-.24a89.48,89.48,0,0,0,14.28-14.93c-2.78,4.44-5.63,8.83-8.41,13.15-4.44,6.81-9,13.81-13.21,20.92-1.07,2-1.72,5.1-.89,6.52.65,1.19,2.19,1,4.09-1,5.27-5.39,10.73-11.44,16.71-18.49a3.74,3.74,0,0,0,.18,1.72,299.92,299.92,0,0,0-22.28,38.46c-.47,1.07-1,3.79-.24,5,.59.89,1.66.83,3-.41a108.19,108.19,0,0,0,10.67-11.67,5.8,5.8,0,0,0,.18,3.44,1.16,1.16,0,0,0,1,.65c.71,0,1.48-.65,2.55-2l.83-1c-2.25,4.33-4.27,8.53-6,12.8-.47,1.13-1,3.73-.3,4.86.53.83,1.54.77,2.9-.36l2-1.78a1.15,1.15,0,0,0,.3.53c.59.59,1.48.47,2.78-.53l2.19-1.72c-.3,1.24-.47,3,.06,3.85s1.48.71,2.67-.3L314.68,258c-.77,1.9-.89,3.44-.36,4.21a1.44,1.44,0,0,0,1.19.65c.95,0,2.13-.89,3.32-2.43,0,1.54,0,3.08.12,4.5s1.19,1.66,1.48,1.66a3.14,3.14,0,0,0,1.84-.89,51.84,51.84,0,0,0,4.38-4.44c1.3.41,3.61-2.07,4-2.67l.65-.77c-.83,3.26-1.54,6.4-2.07,9.42a2.85,2.85,0,0,0,.36,2.19c.59.71,1.78.59,2.84-.41a43.82,43.82,0,0,0,3.32-3.32l.3,1.36c-2,2.37-4.27,6.52-3.26,9.07a44.93,44.93,0,0,0,4.33,8.59,1.67,1.67,0,0,0,1.54.89,4.07,4.07,0,0,0,2.31-.95,19,19,0,0,0,1.66-1.54c2.67.18,4.44.18,6.7-1.07.12.77.24,1.54.3,2.31.24,1.72,1.3,1.9,1.78,1.9,1.19,0,2.61-1.19,3.32-2l.41-.53-.24,1.78a3.05,3.05,0,0,0,.36,2.43,1.65,1.65,0,0,0,1.19.47,5.36,5.36,0,0,0,3.26-1.72c1.3-1.3,2.9-3,4.62-4.68v.24a2,2,0,0,0,.41,1.66,1.13,1.13,0,0,0,.77.3c.24,0,.95,0,2.49-1.42a62.46,62.46,0,0,0,.71,7.17c.18,1.54,1,1.72,1.48,1.72,1.3,0,2.73-1.54,3-1.84a43.28,43.28,0,0,0,7.53-12.15l.24-.24a51.27,51.27,0,0,0,6.22-8.47c.12.89.3,1.78.47,2.67-3.2,2.43-7.23,8.53-6.4,12a3.06,3.06,0,0,0,2.84,2.43,19.48,19.48,0,0,0,3.2.3c7.11,0,12.86-3.61,19.2-9,4.21-3.56,7.7-5.93,11.08-5.93a9.06,9.06,0,0,1,6,2.67l-.24.77-1,3.26c-.47,1.72-.53,2.78-.06,3.38a1.18,1.18,0,0,0,1,.47c1.13,0,2.78-1.24,4-2.61-.83,4.27-1.48,8.24-1.84,12a2.91,2.91,0,0,0,.47,2.37,1.11,1.11,0,0,0,1,.47c1.3,0,3.2-1.72,4-3l1.13-1.66a12.87,12.87,0,0,0,2.13,1.9c3.32,2.25,7.17,1.54,11.2-2.07,5.93-2.13,9.54-10.84,10.9-17.66a6,6,0,0,0,.77-2.55,48.59,48.59,0,0,1,1.36-13c.47-1.72.47-2.84.06-3.44a1.24,1.24,0,0,0-1.36-.41c1.13-3.91,2.13-7.82,3-11.55l.12-.71h0l.12-.53c.3-1.19.24-2-.12-2.37a1,1,0,0,0-.77-.36c-1.72,0-5.27,4.5-6.4,6.46,5.21-13.75,10.84-27.55,16.3-40.89l2.78-6.76c1.07-2.67,1-5.51-.18-7.35A3.32,3.32,0,0,0,469.16,186.88Zm-127-46a4.55,4.55,0,0,0,.71-.77l-.36.59Zm-4.92,21.33,2.73-5.45,2.07-4.09c-.47,1.3-.95,2.67-1.42,4l-.36,1-.24.77ZM395,253.78a43.85,43.85,0,0,1,.41-5.45c1.13-4.09,2.13-8.24,3.08-12.27l.47-1.72a53.84,53.84,0,0,0-1.07,10.31C396.93,247.91,396,250.94,395,253.78Zm14.1-10-.41,1.78a128.56,128.56,0,0,1-11.91,20l-.18.24a145.52,145.52,0,0,0,6.76-17.36A46.26,46.26,0,0,0,409.08,243.77Zm2.25-26.61a8.44,8.44,0,0,0,1.66-1.3c2.43-2.37,5-5,7.47-7.76-2.61,6.7-5.39,14.22-7.7,21.69a32.77,32.77,0,0,1-5.87,6.22C408.43,230.08,409.79,224.15,411.33,217.16Zm12.27-84.38c-3.56,5.27-7.35,10.43-11,15.47-4.86,6.58-9.9,13.33-14.34,20.44l-.47.77-.59.95c-1.84,3.08-1.84,5.93-1,7.47a2.43,2.43,0,0,0,2.13,1.3c.95,0,2.55-.53,4.5-3.2l.41-.59a4.57,4.57,0,0,0,.83,3.08l.12.89c.3,2.31,1.66,2.67,2.37,2.67,1.42,0,3.08-1.13,4.33-2.19a42.26,42.26,0,0,0-2.67,14.22,4.56,4.56,0,0,0,1.07,3.32c1,1,2.67,1,4.33.12l-1.24,2a15,15,0,0,0-5.51,6.93c-1,3.61-2.13,7.29-3.26,10.78-1.36,4.38-2.78,8.77-3.85,13.33a3,3,0,0,0-.36-2,1.27,1.27,0,0,0-1-.47c-2,0-6,4.92-6.87,7.41l-1.3,4.33c-1.84-.24-5.27,3.38-5.93,4.56h0A2.58,2.58,0,0,0,384,244a1.39,1.39,0,0,0-1.07-.47c-1.3,0-3.26,1.72-4.68,3.5l.36-2a2.82,2.82,0,0,0-.12-2.19,1.13,1.13,0,0,0-.77-.3c-1.78,0-5.45,5.21-5.87,6.52-1.54,4.74-3.2,9.78-4.44,14.75a32.14,32.14,0,0,1-1.54,2.84,46.19,46.19,0,0,1,1.07-5.1A96.9,96.9,0,0,0,371.87,245a2.67,2.67,0,0,0-.12-2.13,1,1,0,0,0-.77-.36c-.89,0-2.37,1.48-3.56,3l.77-2.73c.47-1.66.53-2.61.12-3.14a1,1,0,0,0-.83-.41c-1.6,0-4.56,3.61-5.27,5.16s-1.54,3.2-2.19,4.74c.59-1.66,1-3.14,1.42-4.68s.36-2.55,0-3.08a1.14,1.14,0,0,0-1.48-.24l.41-1.42,1.07-3.73c.41-1.66.47-2.61.06-3.14a1,1,0,0,0-.77-.36c-1.19,0-3,2-4.27,3.67l-.06-.06a.84.84,0,0,0-.71-.36c-.77,0-1.9.95-2.84,2l1.72-5.16c.47-1.42.53-2.37.12-3a1.57,1.57,0,0,0-1.13-.53c-1.07,0-2.55,1.13-3.5,2.55l-.47.83c.18-1.78.3-3.61.3-5.39a2,2,0,0,0-.41-1.42,1,1,0,0,0-.71-.3c-1.42,0-3.67,3-4.33,3.85a1,1,0,0,0-.53-.18c-1,0-2.61,1.66-3.79,3.2.47-2.43.95-5,1.24-7.64.18-1.07.12-1.84-.3-2.19a1,1,0,0,0-.77-.41c-1.66,0-4.09,3.2-4.56,4a70.68,70.68,0,0,0-3.38,7.17c.41-1.54.83-3.08,1.19-4.62,1.6-3.38,3.14-6.93,4.56-10.19,1.24-2.31,2.49-4.62,3.67-7.05a10.63,10.63,0,0,0,1.13-3.79l1.19-2.67c.95-2.07,1.19-3.44.71-4.15a1.07,1.07,0,0,0-.95-.53c-1.6,0-4.27,2.43-5.45,4.92-.59,1.24-1.19,2.49-1.72,3.79l-1,2.31c-1.84,2.61-3.56,5.21-5.16,7.7l.59-1.72c.53-1.6.53-2.67.12-3.2-.53-.71-1.66-.53-2.84.3l.24-.3a121.74,121.74,0,0,0,7.76-11.55c1-.24,2.13-1.3,3.26-3,3.32-5,6.52-10.13,9.6-15.23a8,8,0,0,0,.18,4.21,1.57,1.57,0,0,0,1.42,1c.89,0,1.9-.71,3.14-2.13l5.51-6.28c10-11.26,20.44-23,27.91-36,2.55-2.78,5.16-5.45,7.76-7.88-3,8.06-7.7,15.52-12.5,22.34-2.67,3.5-5.21,7.11-7.53,10.78l-.41.53-.36.41.12.06-.18.3-.59.89c-1.48,2.49-1.84,5.39-.89,7.05a2.09,2.09,0,0,0,1.9,1.24c1.3,0,2.73-1.07,4.15-3.2l2.49-3.61,4.56-6.7c1.84-2.31,3.79-4.74,6-7.29-1.84,2.67-3.67,5.45-5.45,8.18-1.6,2.49-3.14,5.33-2.73,8.24.24,2,1.36,2.25,2.07,2.25a6.33,6.33,0,0,0,3.85-2.07,181.93,181.93,0,0,0,13.57-18.25c1.78-2.67,3.61-5.39,5.51-8.06l.89-1.24c3.79-5.33,8.41-11.79,14-16.12ZM329.5,241.34c-1.07,3.85-1.84,7.53-2.49,10.9l-.89,1.19a46.45,46.45,0,0,1,.77-6.1A60.75,60.75,0,0,0,329.5,241.34ZM355.27,174l4.38-7.35,5.39-9a120.35,120.35,0,0,1,19.67-22.16l-1.3,2.61c-7,8-13.57,16.71-19.91,25.12C360.84,166.79,358.12,170.47,355.27,174Zm-33.42,7.29-.77,1.66-1.24,1.54Zm112.76-32.89,5.27-6.87-1.13,3.08Zm5.27,33.18c-2.07,4.27-4.33,8.41-6.58,12.5l.83-3,.3-1C436.34,187.35,438.17,184.51,439.89,181.61Zm8.18,8.95-1.48,4.68q-2.84,3.56-5.69,7.47l2-7.05c3.44-6.46,7.35-13.69,10.67-21.57C451.62,179.3,449.85,184.81,448.07,190.55Zm-93.62-47.34a1.68,1.68,0,0,0-1-.41h-.06a17.89,17.89,0,0,1,3.73-3.61Z"/><path class="cls-5" d="M734.92,148.72a1,1,0,0,0-1.36-.59c-8.89,3.38-17.24,6.46-25.42,9.36a38.18,38.18,0,0,0,9.24-13.57s1.3-3.44.53-4.62a1.14,1.14,0,0,0-1.36-.36l-5.93,2.13,1.19-1.48c0-.06,3.56-5.69,2.67-7.47a1.23,1.23,0,0,0-1.36-.65,38,38,0,0,0-8.53,2.43c.83-1.72,1.84-4.27,1.3-5.33-.36-.53-1-.65-1.9-.24-3,1.36-6.28,2.78-10.37,4.44,1-1.6,3.38-6.1,2.84-7.41a1,1,0,0,0-1.24-.47c-4,1.24-7.82,2.61-11.55,4l2.78-2.31c.89-.77,3.67-6.28,3.08-7.88-.24-.65-.89-.83-1.72-.36L682,121.4c1.9-1.72,3.67-3.38,5.33-5.1.65-.65,3.79-6.46,3.14-8.06-.3-.59-.95-.77-1.78-.3l-1.3.71c1.3-2.19,2.61-5.33,2.19-6.4a.88.88,0,0,0-1.13-.47l-.65.18,1.19-1.13c.53-.53,3.67-6.58,3.08-8a.77.77,0,0,0-1.13-.41c-4.38,1.78-8,3.26-11.32,4.68,1.36-1.84,3.44-6.28,3-7.53a.79.79,0,0,0-1.07-.47c-3.26,1.24-6.58,2.67-9.9,4.15l1.84-2.55c.3-.41,2.49-5.27,1.78-6.7-.3-.59-1-.71-1.9-.12a174.3,174.3,0,0,1-18.84,10l-5.69,2.73c-2,.95-4.38,6.81-4,8.65.18.83.89,1.19,1.78.71l5.75-2.84,5.93-2.84-.24.18a117.46,117.46,0,0,0-13.69,9.66c-.95.83-3.85,6.28-3.32,7.76a.82.82,0,0,0,1,.53l-2.49,2.19a6.82,6.82,0,0,0-1.07,1.6c-13.45,5.69-24.35,14.64-30.63,25.12-.12.18-1.78,4.09-1.07,5.33.3.53,1,.65,1.84.12l2.55-1.72c-1,1.72-3.2,6.16-2.67,7.47.24.59.89.77,1.78.24,13.75-7.82,27.67-15.52,41.24-22.87l-8,4.68a240.75,240.75,0,0,0-25.36,14.87c-1.36.89-3.85,6.22-3.38,7.7.18.59.77.83,1.48.36,3.73-2.25,7.58-4.44,11.38-6.64-2.07,1.42-4.15,2.9-6.1,4.44-1.19.89-4,6.46-3.5,8,.18.59.83.77,1.6.36l5.21-3,7.41-4.21a86.78,86.78,0,0,0-7.11,6.16c-.71.71-3.44,6.1-2.9,7.53.24.59.89.77,1.66.3,3.2-2,6.52-3.85,9.84-5.69a60.87,60.87,0,0,0-5.21,4.44c-.65.65-3.85,6.34-3.2,8.06.24.65.95.83,1.84.41,4.68-2.25,9.36-4.44,14.4-6.7l3.26-1.48c-.65,1.48-1.13,3.14-.71,3.85a.94.94,0,0,0,.95.36c-1.19,2.07-2.67,5.33-2.07,6.52a1,1,0,0,0,1.24.41c3.26-.83,6.64-1.78,10.43-2.84-3.5,1.9-6.87,3.79-10.07,5.87-1.48.95-4.8,7.11-4.21,9.07.18.83.95,1.13,2,.65,5.39-2.37,10.78-4.86,16-7.29l2.31-1.07a83.69,83.69,0,0,0-16.83,11.38c-.95.83-3.91,6.76-3.26,8.47.24.65.95.83,1.84.3,5.1-2.9,10.37-5.63,15.47-8.35l4.5-2.37L658,203.24c-5.57,3.44-11.32,6.93-16.77,10.67-1.72,1.13-4.27,7.23-3.79,8.89.24.65.95.89,1.72.41,8.65-5.69,18.07-10.25,27.32-14.52l-.71.53c-11.14,5.16-19.38,10.37-26.13,16.35-.95.95-3.67,6.87-3.08,8.41.24.65.89.83,1.72.3,4.5-3,9.13-5.87,13.63-8.59,3.56-2.25,7.23-4.5,10.78-6.81,1.54-.77,3.26-1.48,5.1-2.31l-.12.12A151,151,0,0,0,641.36,234c-1.19,1-3.67,7-3.14,8.59.24.65.95.89,1.78.24l.36-.18c-1.36,2.19-2.67,5.27-2.31,6.52.24.71.95,1,1.9.53q4.53-2.13,9.07-4.62l-4.27,3.44c-1.13.89-3.91,6.81-3.32,8.59.24.71.95.89,1.9.41,3.85-2.13,7.53-4.33,11-6.52a98.3,98.3,0,0,0-8.65,8.53c-1.3,1.42-3.08,6.34-2.43,7.88.41,1,1.6.89,3.44-1q2.22-2.4,5-5a115.6,115.6,0,0,1,21.15-14.93c-2.25,1.72-4.5,3.38-6.7,5-6.76,5-13.81,10.07-19.67,16.18-.59.59-3.79,6.34-3.14,8,.24.59.89.77,1.78.36l3.91-2c-1.3,2.07-2.55,5.21-2.25,6.46.18.77.89,1,1.72.59,2.31-1.07,4.68-2.25,7.05-3.61-1.54,2-3.14,6.1-2.73,7.41.18.71.83.95,1.66.47l2.84-1.6,5.69-3.2a106.84,106.84,0,0,1,14.52-6.34c-2.43,1.66-5,3.2-7.41,4.68l-4.27,2.67c-1.66,1.07-4.21,6.87-3.73,8.47a.88.88,0,0,0,.89.77,2.26,2.26,0,0,0,.77-.24c4-2.31,8.59-4.86,13.51-7.17-.47,1.48-1.07,3.61-.53,4.44a.86.86,0,0,0,.77.41c.53,0,1.19-.47,2.13-1.66l.3-.36c3.14-3.79,5.63-6.81,6.64-11.91l.06-.24a60.2,60.2,0,0,0,4-4.62c.06-.06,3.44-5.63,2.61-7.35a1.09,1.09,0,0,0-1.3-.53c-1,.24-2.07.47-3.2.77a78,78,0,0,0,6.1-6.58c.3-.36,3.2-5.63,2.43-7.23a.69.69,0,0,0-.3-.41c1.36-2,3.08-6,2.55-7.23-.24-.59-.83-.77-1.54-.3-9.07,5.69-18.49,10.55-27.49,15.05,7.88-5.81,15.7-12,21.92-20,.41-.47,3.67-6.46,2.84-8.3-.36-.71-1.13-.89-2.19-.36l-3.08,1.48.77-.71c.83-.83,4-6.93,3.32-8.71-.24-.65-.95-.89-1.9-.36l-2.67,1.48c1.19-1.84,3.32-6.52,2.73-7.94-.24-.65-.89-.83-1.78-.3l-1.72,1.07c.95-1.78,2.55-5.33,2-6.64-.24-.65-.95-.83-1.9-.36l-1.54.77c.95-1.84,2.43-5,1.84-6.4-.3-.65-1-.83-2-.41l-.41.18,3.14-3.32c.53-.59,3.26-5.93,2.55-7.58-.3-.65-.95-.83-1.9-.3l-2.78,1.36,1.36-1.19a22.13,22.13,0,0,0,3.5-7.23,82.09,82.09,0,0,0,6.64-5.57,7.75,7.75,0,0,0,1.13-1.54c12.38-4.56,22.28-9.9,31-16.95C732.37,157.08,735.51,150.5,734.92,148.72ZM669.68,223.8l-.24.18-5.1,2.78,1.07-.71ZM642.84,126l-.24.12.53-1.19.65-.47A13.4,13.4,0,0,0,642.84,126Zm52.32,20.92a53.68,53.68,0,0,1,5.45-2.9l-1.78,1.48Zm10.67,4.86c-4.86,3.67-11.44,6.4-17.3,8.59q3.56-2.31,6.76-4.62C698.6,154.41,702.09,153.11,705.83,151.74Zm-48.12-4.27q7.38-3.38,15.47-6.58c-5.45,2.19-10.84,4.5-16.12,6.93Zm16.41,1.19,3.56-1.36c3.67-1.36,7.41-2.73,11.08-4.21a127.56,127.56,0,0,1-18.55,9.72l-7.88,3.32-2.84,1.19C664.53,154.59,669.44,151.74,674.13,148.66Zm6.7,33.48-3.26,2c-2.9.95-5.69,2-8.3,3.08C673.06,185.4,677,183.74,680.82,182.14Z"/><path class="cls-6" d="M992.5,181.13a25.39,25.39,0,0,0,6.76-11.67l-.36.95A42.16,42.16,0,0,1,992.5,181.13Z"/><path class="cls-7" d="M260.53,65.11c-17.72-10.49-40.65-12.8-60.74-13.69-22-1-44.86,1.13-64.94,10.61-21.63,10.25-41.54,25.24-56,44.68-26,35-26.31,81-13.39,121.24.06.24,1.24-1.19,1.13-1.66-7.7-24.65-10.9-50.31-6.1-75.85C66.41,119,86.55,94.74,112,76.84a125.89,125.89,0,0,1,27.38-14.46,133.89,133.89,0,0,0-69.27,74.84,126.67,126.67,0,0,0-6.34,25.42c-.24,1.48-.53,3-.71,4.44-2.31,18,.18,36.56,5.33,53.8,5.1,16.89,14.4,32.59,27.44,44.44,11,10,26.19,15.23,40.17,19.08,2.9.77,5.81,1.48,8.77,2.07a132.46,132.46,0,0,0,30.87,5.21,160.76,160.76,0,0,1-43.08-5.63c-.47-.12-1.19,1.72-.95,1.78,43.43,12.09,98.54,8.83,130.48-26.66.77-.89,1.6-1.84,2.37-2.78a73.46,73.46,0,0,0,14.28-23.11c.53-1.48,1-3,1.48-4.44,7.58-21.27,6.52-45-8.71-63.76-.18-.18-1.48,1.48-1.07,2a59.15,59.15,0,0,1,12.86,33.48,62.59,62.59,0,0,0-6.22-21.87c-7.58-15.23-21.45-26.31-39-31.29a114.51,114.51,0,0,0-29.81-3.73c-13.51,0-45.86,2.49-54.4,25.54-3.91,10.43-3.26,19.55,1.9,27,9.72,14.22,33.66,19,52,18.61-7.11,7.94-16.35,9.72-23.23,9.72-17.72,0-36.74-11.55-44.15-26.9-7.94-16.35-.06-35.55,8-48.77,11.2-18.49,30.34-22.34,44.32-22.34a104.45,104.45,0,0,1,35.43,6.81l1.6.83c10.13,5.33,20.68,6.28,29.45,3.2,13.87-.53,23.64-15.7,26.61-28C290.45,92.07,275.87,74.24,260.53,65.11ZM71.32,224.39a114.42,114.42,0,0,1-5.33-19A115.6,115.6,0,0,0,85.6,246.55,108.83,108.83,0,0,0,123.35,278C98.46,268.3,81.28,250.58,71.32,224.39Zm150.09,61a112.05,112.05,0,0,0,30.52-15.7C242.75,277.54,232.44,282.28,221.42,285.42ZM201.86,155.83a155.83,155.83,0,0,1,24.59,2.25c14.16,2.37,26.72,11.38,34.84,24.77-9.24-10.19-22.28-16.95-34.9-21.51-7.17-2.67-16.77-5.39-25.84-5.45ZM169,190.91q-5.87-9.69,1.19-23.41c4.15-8.24,15.7-10.9,26.31-11.5a24.76,24.76,0,0,0-12.38,4.21C174,167.27,164.83,180.24,173,192c6.34,9.13,18.37,13.45,30.4,14.93C189.54,205.78,174.84,200.69,169,190.91Zm30-69.8a92,92,0,0,0-39.46,8.59c-17.3,8.24-29.63,24.41-34,42.25,1.6-38.63,39.7-58.78,76.38-53.39a58.29,58.29,0,0,1,13.63,4A103.36,103.36,0,0,0,199,121.11Zm52.2,11.73a26.33,26.33,0,0,1-12-3.38,4.58,4.58,0,0,0-1.6-.47,91.14,91.14,0,0,0-10-3.61c-5.33-2.9-10.43-5.51-15.05-6.87-27.49-8.3-60.85-1-78.16,23.17-7.76,10.9-10.43,24.35-10.13,37.57a56.08,56.08,0,0,0,1.54,21c6.76,24.65,33.12,35.85,54.81,35.85a59.28,59.28,0,0,0,20.09-3.32c8.24-2.07,15.47-6.4,20-13.39a42.71,42.71,0,0,0,4.8-7.11,3.66,3.66,0,0,0,.06-3.79,3.8,3.8,0,0,0-.59-.77l.06-.18c0-.24-.12-.18-.24,0a5.46,5.46,0,0,0-1.42-.77l.59-.06c.59-.06,1.36-2.19.95-2.07-15,2.13-31.23-.36-44.09-8.65-5.63-3.61-9.84-9.13-9.84-16.06.06-11,12.62-19.79,22.34-21.27,24.06-3.67,58,11.26,72.05,32.35,4,10.67,4.38,22.87.77,35l-.3.89-.41.65c-.59,2-1.3,3.85-2,5.69-6.16,14.28-17.24,26.78-30.22,33.66A105.18,105.18,0,0,1,184,279.2a108.77,108.77,0,0,1-51.31-13C106.46,252.3,88.39,229,81.87,200.45c-6.7-29.27-.06-60.38,18.13-85.33,23-31.58,61.09-52,97.06-52a90.11,90.11,0,0,1,17.48,1.66c15.94,3.08,32.77,12,46.1,24.47,8.24,7.76,9.36,22.28,5.63,31.88C264.55,125.49,260.35,132.84,251.16,132.84Zm23.7-2.67a21.47,21.47,0,0,1-9,5.93,32,32,0,0,0,6-5.33c7-8.12,9.84-19.67,8-32.47-3-20.8-31-32.77-46-39.17a83.25,83.25,0,0,0-10.67-3.56A154.94,154.94,0,0,1,251,63.39C277.24,73.53,298.21,105.11,274.87,130.17Z"/><path class="cls-7" d="M770.18,127.74c25,2.55,47.23-12.86,43.85-39.58-2.19-17.18-13.39-25.42-27.08-28a40.25,40.25,0,0,0-11-1.54h-.47a9.44,9.44,0,0,0-2.55.06A57,57,0,0,0,767,59.9,81.6,81.6,0,0,0,753.65,63a35.57,35.57,0,0,1,16.3-3.91c.41,0,1.13-1.66.77-1.66C725.91,57.05,728.58,123.48,770.18,127.74ZM812,92a30.84,30.84,0,0,0-.95-9.13c4.33,12.21,1.6,27.26-8.65,35.26-7.23,5.75-17.36,7.82-26.78,7.53C796.25,124.13,811.18,110.38,812,92ZM789.85,72.46l1.84,1.13a28.82,28.82,0,0,1,7.58,13.1,24.85,24.85,0,0,1-7.11,25.06c-8.18,5.93-19.38,6.93-27.38-.06-8.95-7.76-9.54-19.85-5.16-29.81C767,72,777.88,65.76,789.85,72.46Zm-18.49-6.58a32.27,32.27,0,0,1,9.84,1.6c-7.41.3-14.7,5.16-20.15,11.55a30.19,30.19,0,0,1,9.24-10.25c.36-.24,1-1.9.59-1.66a34.13,34.13,0,0,0-12.92,16l-1,1.54c-.41.65-.53,2,.18.83a30.56,30.56,0,0,0,.65,19.2c3.32,9.42,10.19,13.45,17.66,13.63l-.59.06c-14.46,0-22.1-12.62-23.11-24.35C750.74,81.94,756.43,68.55,771.36,65.88Zm-32,29.51-.12-.41c-2.61-12.62,1.9-23.11,10.31-29.45-.12.36-.12.65-.06.59,2.25-.65,4.56-1.3,7-1.9-10,5.81-16.12,15.52-17.07,27.85A31.28,31.28,0,0,0,739.37,95.39Z"/><path class="cls-7" d="M812.25,169.4a65.44,65.44,0,0,0-7.35-17.66,43.75,43.75,0,0,0-10-13.87l-.06-.06c-1.72-2.07-3.56-4.09-5.33-6,.18-.47.24-.89-.12-.47l-.18.12-.36-.36c-.12-.18-1.19,1.19-1.07,1.84-9.66,8.65-25,9.36-34.55,0-.12-.24-1.3,1.36-.95,1.78a21.84,21.84,0,0,0,2.19,1.9c-.65-.12-1.07-.24-1.24-.06a24.92,24.92,0,0,0-7.41,10.9l1.24-5.33c.24-.95-.95.71-1.07,1.07-4,17.18-7.41,34.43-8.41,52.09-1,16.77,1.3,33.54,2.9,50.25,2.13,22.46,10.31,62,41.42,53.39a36.34,36.34,0,0,0,16.18-9.66l-.41.59c-.24.36-.83,2.07-.06,1.07,1.24-1.6,2.31-3.26,3.44-4.86,8.18-10,12.62-23.64,13.75-35.85l.24-3.61c1.54-10.9,1.36-22.34,1.07-32.77C815.69,199,815.8,183.8,812.25,169.4Zm-23.88-35.79,2.43,2.73c-1.66.18-4.86.65-6.1,1.84-2.78,2.43-6.52,3.14-10.49,3A26,26,0,0,0,788.37,133.61Zm-32.12,11.61c7.17,4.27,21.33,4.44,29.92.71,18.31,28.92,22.28,139.9-11.73,140.32-3.2-.95-6.76-3.32-9.66-8.41-6.4-11.44-7.53-27-8.53-40.77l-.36-5.27-.65-7C753.35,204.72,749.62,158.62,756.25,145.22ZM768.87,297c-25.06-5.93-26.19-43.49-28-63.52-1.3-14.4-2.67-28.44-1.84-43a235.52,235.52,0,0,1,4.74-33.36,97.26,97.26,0,0,0-.36,12.68c.24,8.65.18,17.48.18,26-.06,12.5-.06,25.42.65,38.22,1.07,18.43,3.5,61.63,32,61.63a38.48,38.48,0,0,0,12.92-2.49,30.22,30.22,0,0,0,3.44-1.54C785.7,296.5,777.41,299,768.87,297Zm28.86-25.84c-2.55,8.24-9.42,14.46-16.95,15.52C808,273.87,805.32,182,790.15,149.08a38.34,38.34,0,0,1,3,5.57c1.48,5.39,3.2,10.84,4.92,16.35,1.42,6.93,2.25,14,3,20.21l.53,4.62C805.32,226,804,250.64,797.73,271.14ZM815,217.46v-.71l.06,1.6Z"/><path class="cls-7" d="M604.09,123.77l-1.3-.83a38.46,38.46,0,0,0-10.67-4.09,2.12,2.12,0,0,0,.3-1c-17.48-2.25-37.57-5.21-51.91,6.76C537.07,112.46,526.23,109,515,111.21c.3-.53.59-1.42.3-1.42-20-1-32.59,12.44-31.88,30-3.56,12.86-2.13,28-.71,40.23.41,3.56.95,7.11,1.48,10.67l.06,1.72c.18,7.82.41,15.64.47,23.41,0,3.85-.12,8.12-.3,12.56-.47,14.4-1.07,30.28,3.73,42.84l-.12-.41c-6.64-17.07-7.53-37.39-5.69-55.52.06-.41-.95.95-1,1.36-2.84,24.77,2.43,83,33.24,74.78l.95.12a26.1,26.1,0,0,0,5.27-.53c8.35,1.48,16.83-.53,22.52-7.88,7.23-9.3,8.53-22.75,9.36-34.07,1.13-16-.47-31.88-.06-47.88l.06-1.66c3.67-12.5,12.33-17.6,27.79-16.89h2.61a59.52,59.52,0,0,0,19.32-3.26c.18-.06-9.72-10-11-23.41C588.74,129,604.09,123.77,604.09,123.77ZM483.86,176.45c-.24-1.66-.41-3.32-.59-5-.95-8.77-1.36-18.9.47-28.21L484,145C483.62,155.42,483.68,166,483.86,176.45Zm87-58.78c-11.91,1.24-22.52,5.57-29.39,12l-.06-.18c-.18-1.3-.41-2.49-.65-3.61C549.57,119.09,560.06,117.43,570.9,117.67Zm-32.12,7.47c-5.57-8-13.15-12.62-21.63-12.92C527.29,111.27,535.29,116.25,538.79,125.14Zm-16.65-2.19a14.08,14.08,0,0,1,3.91,2.84c-6.46-4.15-14.46-4.62-22.28.24A23.71,23.71,0,0,0,496,134.8c.89-5.69,2.55-9.9,5-12.5a10.54,10.54,0,0,1,8-3.14C512.66,119.15,517,120.46,522.14,122.94Zm-37.69,13-.06.59v.12c-.12-6.52,1.72-12.8,6.76-18,5.63-5.81,14.16-7.17,21.87-7.11a42.94,42.94,0,0,0-5.16,1.6C499.56,115.24,485.4,120.81,484.45,136Zm18.31,153.23c-7.53-2.73-11.79-11-14.64-18a35.92,35.92,0,0,0,4.33,8,28,28,0,0,0,14.87,11A21.82,21.82,0,0,1,502.76,289.21Zm46.69-23.58c-1.9,10-6.1,20.27-16.59,23.23a20.44,20.44,0,0,1-6.34.65c10.61-3.85,19.49-12.8,22.16-23.46,3-11.67,2.61-24.18,2.13-36.26-.12-4.27-.24-8.53-.24-12.62a80.37,80.37,0,0,1,.53-9.66c0,3.67.18,7.29.3,10.84C552,234,552.36,250.17,549.45,265.63Zm35.49-90.19c-1.78,0-3.56-.06-5.39-.12s-3.73-.18-5.63-.18a39.55,39.55,0,0,0-9.42,1c6.34-3.91,14.46-5.16,21.69-6,1.48,2.84,2.67,4.56,2.67,4.74S588.21,175.44,584.95,175.44Zm.24-7.29c-8.53,1.19-17.9,3.38-24.41,9.18-15.29,5.81-19.26,20.38-20.92,31.17-1.42,9.36-1.13,19-.89,28.26.24,8.47.47,17.3-.59,25.78-1.48,11.85-7.94,18.9-17.24,18.9-10.43,0-22.69-9.42-24.24-24.59-1.84-17.3-1.54-35.26-1.36-52.74.12-6,.18-12,.18-17.9,0-12.62,0-26.19-.3-39.76a77.88,77.88,0,0,1,.36-9.42A28,28,0,0,1,501,129.7c9.72-9.72,22.93-5.27,30.34,4a71,71,0,0,1,2.78,7.47,3.31,3.31,0,0,0,3.38,2c1.84,0,5.27-.95,6.7-2.43l.36-.36a3.88,3.88,0,0,0,1.6-1.66c4.09-8.89,13.39-13.39,27.55-13.39A81.25,81.25,0,0,1,587,126.56c.71.12,1.48.18,2.25.24C575.47,141.73,580.74,158.91,585.18,168.16Z"/><polygon class="cls-6" points="718.27 161.52 718.33 161.4 718.15 161.76 718.27 161.52"/><path class="cls-6" d="M716.61,165.13a14.68,14.68,0,0,0,1.54-3.38A17.7,17.7,0,0,1,716.61,165.13Z"/><path class="cls-7" d="M471.12,174.67l-.95-10.73c-.65-7.29-1.36-14.81-1.78-22.22-.71-11.91-1.3-21.39-13.75-28.68-12.8-22-34.43-3.5-40.06,14.4-11.61-7.11-26.49-8.71-37.33-8.71a111.94,111.94,0,0,0-29.45,3.85c-12.33,3.5-23.7,10.67-33.12,20.38a81.63,81.63,0,0,0-17,24.29,94.72,94.72,0,0,0-8.83,29.45,126.5,126.5,0,0,0-.12,38.69c3.38,21.33,12.33,40.89,32.35,50.6l2.13.95c9.13,10,20.38,12.8,33.72,12.21,14.34-.59,33.66-6,45.8-17.12a99.45,99.45,0,0,0,10.78-7.64c8.89,17.36,28.74,36.68,45.45,17.48,18.67-21.51,16.41-51.79,14.75-78.45C472.9,200.92,472.36,187.77,471.12,174.67Zm-15.41-39.4.18,2.07c-3.91-6-5-15.11-12.27-16.71C435.27,118.8,425,127.8,424,135.39a2.69,2.69,0,0,1-.47-3.38c2.19-5.45,12.92-11.67,20.09-11.67a8.37,8.37,0,0,1,4,.89C452.16,123.89,455.06,128.87,455.71,135.27Zm-10-28a17.82,17.82,0,0,1,4.68,3.73,24.56,24.56,0,0,0-8.59-1.66c-12,0-21.21,9.24-26.43,18.61C419.27,115,431.18,99.42,445.76,107.24ZM328.43,141.91c9.13-9.13,27.49-15.29,45.69-15.29,16.3,0,30,4.86,37.8,13.33l1.07,1.13c-30.75-19.49-66.13-11-90.6,14.7a92.09,92.09,0,0,0-20.56,34A99.49,99.49,0,0,1,328.43,141.91ZM294.06,250.22a109,109,0,0,1-5.69-34,91.88,91.88,0,0,0,6.16,27.26c4.5,14.46,12.15,27.73,22.93,37.39C306.45,274,298.74,263.44,294.06,250.22Zm15.29,18c.83,1,1.72,2,2.61,2.84l.89,1.54C311.66,271.2,310.48,269.78,309.35,268.24Zm10.13,11.14-2.31-3.26A80.2,80.2,0,0,0,336,288.38l-4.8-1.36-1.78-.59A62.28,62.28,0,0,1,319.48,279.38ZM350.18,297a36.45,36.45,0,0,1-20.74-7.64l.3.06a66.33,66.33,0,0,0,8.35,3.73c.36.12.83-.59,1.13-1.24a92.34,92.34,0,0,0,13.87,1.72c13.81,2.07,28.62-.65,42.78-7.76C382.24,294.31,363.45,297.57,350.18,297Zm75.25-35.91c-.77-1.78-2.84-1.78-3.56-1.78-1.54,0-5.63.59-7.17,2.19l-.71.71.12-.59c.06-.59-1.13.95-1.19,1.36l-.12.47c-14.1,14.22-30,21.69-46.16,21.69-35,0-64.94-34.25-66.66-76.38a73,73,0,0,1,.36-10.13,91.46,91.46,0,0,1,28.8-48c23.94-21.33,56.88-24.29,83.85-7.05.3.18,1.13-1.07,1.13-1.66a4.6,4.6,0,0,0,2.31.53c2.25,0,6.87-1.24,8.06-3.73a3,3,0,0,0,.18-1.9l.06-.3c.24-10.78,9.72-15.17,16.89-13,6.28,1.9,10,11.14,13.45,16.53l1.3,2.13c.83,9.78,1.42,19.67,2,29.33.36,6.46.77,12.92,1.19,19.38,1.54,21.63,0,42.78-1.66,62.69l-.24,2.61c-.65,9.3-2.13,31-14.1,31a18.13,18.13,0,0,1-8.18-2.37c-6.87-3.5-9.3-12.27-10.73-20.68l.12-.06A3,3,0,0,0,425.43,261.13Zm28.68,33.3c-8.41,6-16.77,3.73-23.88-1.84a23.39,23.39,0,0,0,9.36,1.9,33.72,33.72,0,0,0,14.34-3.61c9.54-4.68,14.52-16.24,15.17-25.54l.89-12c.95-12.15,1.9-24.65,2.25-37.21C474,242,477.34,278,454.11,294.43Z"/><path class="cls-7" d="M345.08,194.88c-.12.24-.12.41-.06.41a33.26,33.26,0,0,0-6.7,22.34c1.54,28.86,38.22,34.6,58.66,23.11a39.32,39.32,0,0,0,19.2-25.12c4.33-12,2.13-27-6.4-37.27C393.38,158.56,353.08,173.43,345.08,194.88Zm1.9,38.34c-10-10.25-9.24-26.31-1.54-37.39-2.84,6.28-3.26,13.81-1,22.4,4,15.52,17.66,25.6,34.66,25.6a40,40,0,0,0,7.53-.71C372.75,246.67,357,243.47,347,233.22Zm53.69-9.84c-3.26,8.06-9.36,12.5-17.36,12.5-8.41,0-17.54-4.92-23.17-12.62-3.91-5.33-5.69-12.38-5.33-21,.59-14.7,15.05-19,27.08-20.09a6.41,6.41,0,0,0,2-.47c7.47,1.13,12,6.34,14.46,10.55C403.57,201.16,404.46,213.6,400.66,223.38Zm13.51-5.21a44.28,44.28,0,0,0-.36-21.21A32.53,32.53,0,0,1,414.17,218.17Zm3.08-10.73a36.18,36.18,0,0,0-3-14.52c-3.67-8.53-9.6-13.81-16.47-16.41A31.33,31.33,0,0,0,385.08,174c-1.24,0-2.61.06-4,.18.06-.24.12-.41.06-.41l-2.61.83A48.55,48.55,0,0,0,369,177a6.23,6.23,0,0,0-3.08,1.9c-8.71,3.08-14.93,7.7-18.72,13.69L346,194C354,173.9,387,166,404.46,176.57c8.18,5,11.91,16.12,12.74,25.12A37.3,37.3,0,0,1,417.25,207.44Z"/><path class="cls-7" d="M738.06,158c.95-10.49-1.48-20-10.55-25.66-5.93-5.33-15.11-8.24-25.6-8.18L702,123c10.13-17.42-1.54-32.35-18-39.52a29.37,29.37,0,0,0-9.66-3.14c-1.48-.36-3-.65-4.56-.89-11-1.54-23.7.36-30.87,9.72-6.87,9-5.21,20.92-1.42,31.29l.3,2.13-2,.53c-9.66-.36-17.78,2.13-23.47,8.89a27.54,27.54,0,0,0-9.84,11.55c-7.94,17.24,6.93,37.8,22.81,43.32.47.18,1.3-1.6.95-1.72-1.24-.47-2.49-1-3.67-1.6a26.27,26.27,0,0,0,14-.06c-.24,3.67-.59,7.7-.95,11.91-1.48,17.3-3.26,38.28-1.24,56.65,2.37,27.55,12.62,50.49,42.78,48.12,23.58-1.84,31.29-26.19,32.35-46.46a161.64,161.64,0,0,0-8.83-61.51l-.71-4.38-.36-2.07C715.54,181.61,736.34,177.58,738.06,158ZM702.15,121.7c.59-11.67-2.67-22.81-8.95-30.58C703,98.47,708.73,109.38,702.15,121.7ZM672.59,88.34c11.91,3.2,16.77,16.59,17.72,28.38C687.81,103.33,681.35,90,666.9,90c-12.09,0-16.41,9.48-18,19.85.41-8.41,2.31-14.58,5.63-18.31C658.48,87.15,664.41,86.15,672.59,88.34Zm-35.67,24.24c-2.43-9.42-2.37-19.38,5.69-25.84,4.86-3.91,11.2-5.45,17.6-5.63-5.39,1.24-13.39,4.15-18,10.67C637.74,98.12,636.74,105.46,636.91,112.58Zm-35.26,39.94c-.59-9,3.38-14.75,9.36-18.78a35.88,35.88,0,0,0-5.57,12.8,28.26,28.26,0,0,0-.24,13.51,29.94,29.94,0,0,0,2.25,9.9A36.72,36.72,0,0,1,601.66,152.51Zm8.24,17.42c5.69,7.23,15.05,11.61,25.24,11.73C624.47,183.68,614.93,179.77,609.89,169.93Zm36.86,27c.89-8.83,1.07-14.75,1.13-20.8V175l-.71-.65a3.73,3.73,0,0,0-2.84-.89c-1.54,0-5.27,1.19-6.52.71-11.91-.41-21.39-10.25-21.69-22.81A26.89,26.89,0,0,1,622,134.74C630.16,125,645,130,646.1,129.46c2-.41,3.61-2.67,3.32-5.63l-.24-2.55a80.45,80.45,0,0,1,1.48-16.83c3-13,17.3-15.29,26.61-8.83,9,6.34,11.85,19.79,12.74,31.11-.53.83-.77,3.67.36,4.8v.71c-.41.36-.83,1.6-.59,1.6l.65-.12c0,.24.18.18.3,0,12.15-1.6,23.35,4.56,27.2,16.71a19,19,0,0,1,.41,11c5.57-16.18-7.64-29.39-22.69-29.69l2.07-.06c8.59,0,23.23,2.43,25.06,18.43a22,22,0,0,1-5.51,17.36,26.36,26.36,0,0,1-8.77,6.46,24.13,24.13,0,0,0,8.12-8.77c-3.26,5.21-9.42,8.65-16.06,11a20.15,20.15,0,0,1-2.67.18c-3.38,1-8.65-.41-10.13,1.3a3,3,0,0,0-.83,2l-2.31.41c-.47.06-1.07,1.84-.83,1.78l3.32-.59.65,5.27c2.9,21.87,10.61,80.05-4.09,97.06-4.56,5.21-10.9,5.81-19.44,1.9C639,273.93,643.49,229.49,646.75,197Zm57.6,20.44c7.76,40.12,6,89.36-39.76,79.58a27.91,27.91,0,0,1-15.05-8.59c5.69,4.86,12.92,7.41,21.57,7.41a46.7,46.7,0,0,0,4.86-.24,27.49,27.49,0,0,0,20-11C707.31,269.66,707,241.87,704.35,217.4Zm17.3-40.06c-7.05,3.2-14.81,4.74-22.22,6.81l-.12-.83c14.64-1.48,31.76-9.72,35-29a25.83,25.83,0,0,0-.53-12.15l1,1.84C741.26,157.25,734.09,171.71,721.65,177.34Z"/><path class="cls-7" d="M988.77,211.12c-5.93-4.44-14.34-3.61-22.46-1.19a59.51,59.51,0,0,0-7,.71c-8.47,1.48-16,5.93-23.23,10.61-11.44,3.26-22.64,3.44-34.31-3.32a29.44,29.44,0,0,1-13-15.64c1.66-11.08,12-20.62,23.05-24.35h1.24c9.48-1,16.95,3.08,24.95,7.41,6.22,3.38,12.62,6.76,19.91,7.53,12.62,5.21,26.07-1.3,34.55-11.73a35.81,35.81,0,0,1-23.11,10.67c12.44-2.9,20.62-9.42,26.31-20.74A31.85,31.85,0,0,0,999,158.2a21.43,21.43,0,0,1,.24,11.26c2.55-7,1.84-13-.83-18.25a34.29,34.29,0,0,0-3.38-9.36c-5.81-10.73-17.07-19.61-28.74-25.3-7.7-6.4-18.9-8-28.62-8.83-16-1.3-32.53.71-48.06,4.38C863,118.32,839.92,142,835.71,169.46A102.91,102.91,0,0,0,831.15,234a92.62,92.62,0,0,0,3.61,11.26c7.82,24.29,25.84,42.13,49.72,48.53a96.91,96.91,0,0,0,32.59,5.87c30.16.41,66.19-13.39,76.68-44.62C998.07,242.17,1001.15,220.48,988.77,211.12ZM971.88,270C958,287,933.07,289.57,919.44,289.57a117.78,117.78,0,0,1-33.6-4.86c-43.32-13.33-44.09-66-43.32-81.71,2.07-40.12,18-65.77,48.77-78.57a93.54,93.54,0,0,1,9.18-3.26c-23,10.31-43.26,29.15-50.49,49.3-.47,1.3.77-.24,1-.71,8.83-24.29,37.09-45.57,65.89-52.09a98.14,98.14,0,0,1,11.67-.77,80.07,80.07,0,0,1,14.81,1.36,77.76,77.76,0,0,1,25.78,16.65c13.15,12.62,18.13,44-7.88,45.09-10.25.41-20.74-7.11-29.33-12-14.7-8.3-28.38-12.15-39.35,3.26a40,40,0,0,0-6.76,15.23l-.77,1.13c-7.53,11.14-8.41,26.43-2.31,38.1,5.51,10.55,15.29,15.94,27.79,14.87,9-.71,18.67-6.28,28-11.61,6.64-3.79,13.39-7.64,19.73-9.66,7.7-.18,14.81,3.56,19.61,12.21,11.91,21.57-12.09,45.09-32,49.24-.53.12-1.19,2.07-.89,2,16.65-3.32,35.67-19.08,36.92-37.57,1-14.64-6.58-24.65-16.95-27.32h1.42c6.87,0,12.27,3.67,16.89,11.5C990,240.74,981.78,257.75,971.88,270Zm-5-141.8q-.09-.09-.36.18a37.71,37.71,0,0,0-3.38-2.73,45.07,45.07,0,0,1,4.33,2.78Zm-69,91.13c10.07,8,21.15,8.41,32.18,6a97,97,0,0,1-9.54,5.75,17.52,17.52,0,0,1-8.35,2.25c-11.5,0-21.57-13-23.47-24.65v-.47A34,34,0,0,0,897.93,219.29Zm-10.67-34.55c2.67-13.92,14.64-24.35,28.68-20.56a59.12,59.12,0,0,1,12,5.1,46.93,46.93,0,0,0-5-.3C908.72,169,895.38,175,887.27,184.75Zm94.39-9.66c-2.25,4.33-6.76,9.54-15.23,9.54a27.65,27.65,0,0,1-9.66-2l1,.24c12,1.6,21.21-7.64,24.12-18.49,3.14-11.91-2.78-23.29-11-31.88l2.67,1.24a46,46,0,0,1,5.87,7.23C985.93,150.62,986.87,165.31,981.66,175.09Zm-40-65.18c-2.78-.12-5.57-.3-8.41-.3-3.61,0-7.23.18-10.84.47-1.9-.06-3.73-.12-5.57-.06A124,124,0,0,1,941.66,109.91Zm-72.11,12.33c10.13-6.52,22.1-8.77,33.83-10.55l-3,.71c-17.6,4.56-34.78,12.27-46.63,26.61-1.13,1.36-2.19,2.78-3.2,4.21a71.49,71.49,0,0,0-8.47,13.27c-1.66,2.84-3.14,5.75-4.56,8.77C841.34,147.18,853.85,132.25,869.55,122.23Zm-36.09,58.9.77-1.84a175.67,175.67,0,0,0-3.79,36.44c0,1,0,2,.06,3A102.13,102.13,0,0,1,833.46,181.13Zm74,115.43c1.78.12,3.56.18,5.27.18,15.47,0,40.77-2.37,59.31-15.52q-1.78,1.33-3.56,2.49C951.5,294.55,928.92,298.93,907.47,296.56Zm81.48-34.37c7.11-13.33,8.41-28.26,3-38.87a23.7,23.7,0,0,0-14.46-12c6.52.24,12.21,2.9,15.47,10.25C999,235.11,996.12,249.87,988.95,262.19Z"/><path class="cls-3" d="M212.47,253.78c2.19,0,4.62-5.87,2.25-5.87C212.53,247.91,210.1,253.78,212.47,253.78Z"/><path class="cls-5" d="M1270.94,224.51c5.51-2.07,1.84-4.44-2.31-3.38l-2.55.59c1-.71,2-1.48,2.9-2.25,1.54-1.36,1.07-2.07,0-2.43l.77-.41c2.61-1.6,2.37-3.38-.83-3.26-7.11.18-14.22.47-21.21,1.13a169.86,169.86,0,0,0,24.89-8.18c4.74-2.07,2.67-3.79-.77-3.61-.06-1.19-1.6-2-5.51-1.42a277.94,277.94,0,0,1-28.92,2.13c9.07-1.42,18.49-1.72,27-2.31,4.68-.3,15.82-8,6-7.35-9.07.59-18.13,0-27.26-.47l-2.84-.06q4-.36,8-.36a110.16,110.16,0,0,0,11.61.3c3.14-.18,15.52-6.87,7.64-7.35l-1.66-.06h-.47c4.15-1.66,8.47-4.74,3.79-6,4.21-1.48,8.53-3.85,4.8-5.45,3.14-1.3,5.45-3.14,3.67-4.62a44.77,44.77,0,0,0-8-5.33c3.26.95,6.7,1.9,10.43,2.78,1.84.47,8.3-.89,11.5-2.78,1.54.83,3.14,1.54,4.8,2.25.95.36,3.32.06,5.75-.53l.06.24c.71,3.73,2.37,3.08,3.91,1.13h0c.77,3,2,3.14,3.2,2.13.83,2.25,2.55,3.2,4.44.3,0,1.3,0,2.61.12,3.91.24,2.78,2.19,6.7,4.68,2.78,1.3-2,2.43-4.09,3.61-6.16-.3,2.49-.47,10.49,3.32,7.17l.36-.36c.24,1.13.71,2.25,1.6,2.55-.24,2.67,0,5.33,1.84,5.27.65-.06,1.3-.12,2-.24l-.53,1.66c-2.13,3-4.56,10.25-1.84,12.74a23.94,23.94,0,0,0-.89,4.09c-1.72,3.44-2.31,8.65-1.19,10.84-1.72.71-2.84,3-3.38,5.57-4.44.95-9.42,3.61-8.71,4.8l1.24,2.07-.12.06c-3.79.77-7.88,2.49-8.35,4.44-.77.24-1.54.47-2.25.77-3.56-1.54-9.54-1.36-13.15.95-6.58,4.21-12.68,8.95-18.9,13.69-1.9,1.13-3.85,2.31-5.87,3.32,6.4-4.74,12.86-9.3,18.9-14.58,6.58-5.69-2.31-8.65-7.58-8.71-.12-1.48-6-.65-6.81-.36-4.09,1.84-8.12,3.67-12.15,5.57q-2.67,1-5.33,2.13l-7.05,1.48A258,258,0,0,1,1270.94,224.51Zm-54.16,1.66,2.49-1.13c8.18-1,16.3-2,24.53-2.19C1234.8,225.46,1225.73,227.53,1216.78,226.17Zm169-24.83c-5.75-.47-11.5-.65-17.24-.77,4.5-1.07,9-2.13,13.51-3.14,4.21-.89,7.05-15.29,1.66-14.81-3.61.3-7.23.83-10.9,1.48a33.52,33.52,0,0,0,12.44-8.3c1.6-1.78,5.75-16.59.71-14.28-6.46,3-13.57,7.47-21,11.26-2.84.71-5.75,1.36-8.71,2.07,8.24-5.69,16.41-11.26,22.64-19.44,1.13-1.54,4.56-15.58-.18-13.27-6.87,3.38-13,9-19.32,14.34a37.4,37.4,0,0,0,6.46-14.1c.24-1,1.07-10.13-2.37-8.18-8.65,4.92-14,15.05-20.86,22.52-1.54,1-2.9,2-4,2.84-.65.59-1.24,1.24-1.84,1.84l.65-1.6c4.62-6.22,11.61-12.86,14.4-17.36,4-6.58,5-14.7,3.67-22.1-.3-1.72-1.84-4-3.61-2.07-8.77,9-11.61,21.75-17,32.59,4.33-11.44,9.48-22.58,11.85-34.66.83-4.33-1.13-12.5-5.1-5.21-.53,1-1,2-1.54,3.08l.12-1.36c.06-1.3-.3-6-2.55-3.44s-3.08,6.76-3.2,10c-.24,5.16-3.73,10.13-6.52,14.75,2.13-7.29,3.85-14.58,3.5-22.28-.24-4.44-3.5-6-5.57-1.36a80.61,80.61,0,0,0-3.67,10.43,91,91,0,0,0,.18-11.38c-.41-9.6-6.46.12-7.17,4.38-1.66,9.9-2.9,19.79-4.62,29.69-.53-3.73-.89-7.47-1.13-11.2-.18-6.4-.47-12.74-.53-19.14l-.06-7.11c0-10.07-7.23,1.3-7.29,6.16l.06,8.53c-1.66-6.22-3.44-12.33-5.63-18.25-1.6-4.21-5.27,2.67-6.28,8-1-1.3-2-2.61-3.08-3.85-3.08-3.67-13-.59-14.22,3.38-4.8-.65-13.1,3-11.67,5.63,1.07,2.13,2.13,4.09,3.26,6a40.22,40.22,0,0,0-13.87-3.56c-1.54-.12-15.82,3.32-11.44,6.34,4.21,3,8.47,6,12.68,9-3.5-1.36-7-2.61-10.61-3.67-2.55-.71-16.35,1.42-12.8,6a91.13,91.13,0,0,0,8.89,10.13,77.89,77.89,0,0,1-9.07-3.08c-2.78-1.13-16.65,3.08-12.8,6a108.12,108.12,0,0,0,12.86,8.3l-1.3.06c-1.72.12-15,4.5-8.89,7,5.16,2.13,10.37,4,15.64,5.93a71.74,71.74,0,0,0-17.9,1.9c-1.3.36-10.31,5-5.1,6.4,2,.53,3.85.95,5.69,1.3-3.44,1.48-9.66,5-5.1,6.1,4.33,1.13,8.95,2.25,13.69,3.26a107.59,107.59,0,0,0-15.05,4.68c-3,1.19-7.17,4.86-1.84,6a52.94,52.94,0,0,0,12.92,1.13,78.31,78.31,0,0,0-12.74,5.57c-3.91,2.19-3.44,5.75,1.42,5.39,7.05-.59,14-.89,21.09-1.13a148.2,148.2,0,0,0-30,9.54c-3.44,1.54-1.9,2.37.53,2.55l-1.13.36c-2.84,1-4.56,4.09-.24,3.79,2.49-.18,4.92-.41,7.41-.65l-.41.24c-.83.47-3.38,2.49-1.07,3.08,17.36,4.38,33.42-2.37,50.07-6.58l-1.84,1.24c-3,.59-6,1.24-9,2.13-9.72,2.9-18.72,7.64-28.44,10.61-4.15,1.24-6.1,4.68-.3,4a111.62,111.62,0,0,0,16.24-3,109.12,109.12,0,0,1-18.72,6.93c-5.81,1.48-4.8,5.27,1,3.79,6.64-1.72,13.21-3.67,19.79-5.63-4.15,1.78-8.3,3.5-12.5,5.1-1.9.71-2.73,1.72-2.73,2.49l-1.36.65c-12.44,5.39-1.3,14.58,8.35,10.37l2.07-.95c-3.38,4.33,0,8.06,4.86,8.65a35.15,35.15,0,0,0,5,.36c0,4,7.35,7.58,14,5,11.55-4.44,21.51-11.44,31.29-18.78l-3.14,3.91c-1.72.89-3.38,1.72-5,2.67-10.07,5.87-20,12.15-29.57,18.78-6,4.21,8.65,2.13,11.2.36,4.33-3,8.71-5.81,13.15-8.59a155.06,155.06,0,0,0-10.78,17.18c-1.72,3.14,11.61-.41,12.86-1.19,3.44-2.13,6.76-4.44,10-6.81a92.2,92.2,0,0,0-4.27,9.66c-1.3,3.73,11.61-.36,12.86-1.13a44.73,44.73,0,0,0,7.7-6.1c-.41,3.38-.83,6.76-1.42,10.07-.53,3.67,13.21.47,14.52-2.61l1.24-3.14c.36,1,.65,2,1.07,3,1.36,3.56,13.27-.77,14.58-3.32a49.73,49.73,0,0,0,4.74-15.17,16.26,16.26,0,0,0,4.74,5.93c2.55,2,14.16-.77,14.28-4.5a55.93,55.93,0,0,0-4.38-21.92c5.21,5.69,9.84,11.85,15.35,17.24,4.15,4.09,6.22-10.84,5.63-13.1a50.78,50.78,0,0,0-5.57-12.56c4.5,2.61,9,5.27,13.45,8s8.65-11.79,5-14l-.59-.36c4.62-.36,7.29-12.8,3.2-14.87a54.47,54.47,0,0,0-14.75-4.8,92.67,92.67,0,0,0,13.81-2.55C1386.67,215.26,1390.1,201.69,1385.78,201.34Z"/><path class="cls-8" d="M1157.77,253.13a2.52,2.52,0,0,0-2.25-1.9l-3.08-.18.95-.65c1.24-.89,5-6.87,4.21-9.54a2.54,2.54,0,0,0-2.43-1.84l-.47.06-1.13.18c2.84-2.43,5.57-5.33,5.16-7a2.39,2.39,0,0,0-2.43-1.78,40.22,40.22,0,0,0-5.45,1.13l-3.26.77a64.41,64.41,0,0,0,8.71-3.26c2.49-1.36,2.73-8.06,2.19-10.07-.59-2.49-2.37-2.67-2.9-2.67h-.36a99,99,0,0,0-10.19,2,52.39,52.39,0,0,0,6.58-3.79c1.24-.77,5.21-6.93,4.38-9.6a2.22,2.22,0,0,0-.71-1.19c1.54-2.37,2.73-5.45,2.49-7.05a2.62,2.62,0,0,0-2.61-2.31l-.3.06-1.13.06v-.77c2-1.84,4.56-6.87,4-9.18a2.71,2.71,0,0,0-2.61-2.13h-.24c.89-1.84,1.42-3.85.95-5.16a2.63,2.63,0,0,0-2.43-1.66l-.47.06-2.37.41,1.13-.95c.71-.53,5.51-6.52,4.38-9.66a2.78,2.78,0,0,0-2.73-1.84h-3.44c.95-1.84,1.72-3.85,1.19-5.27a2.58,2.58,0,0,0-2-1.6c1.36-2.25,2.37-5.1,2-6.64a2.72,2.72,0,0,0-2.67-2.19h-.36c-4.09.47-8.24.89-12.33,1.24-9.36.89-19.14,1.78-28.56,4-2.49.59-4.15,3.79-4.86,5.75-2.73,2-5,7.23-4.56,9.66a3,3,0,0,0,1.66,2.25c-1.9,2.43-3.2,6.28-3,7.94a2.76,2.76,0,0,0,1.07,1.78l-1,.41c-2.37,1-5.75,7.35-5.21,9.9a2.54,2.54,0,0,0,2.49,2.13l.47-.06,3.26-.47a9.83,9.83,0,0,0-1.24,4.68,2.93,2.93,0,0,0,1.72,2.49c-1.9,2.19-3.85,6-3.67,7.88a2.66,2.66,0,0,0,2.19,2.55,80.61,80.61,0,0,0,12.27,1.13,33.82,33.82,0,0,0-6,2.67c-2,1.19-1.19,4.21-.95,5.16.3,1.13,2,6.52,5.69,6.52l1.07-.06c-1.36,2.13-2.67,4.86-2.25,6.46a2.53,2.53,0,0,0,2.25,2l1.24.12c-2,2.31-3.44,6.28-3.2,7.94a2.65,2.65,0,0,0,1.42,1.9l-1.6.77c-2.13,1.07-5.27,7.29-4.74,9.42a2.4,2.4,0,0,0,2.37,2l.59-.06.83-.18a5.43,5.43,0,0,0-.36,4,2.53,2.53,0,0,0,2.25,1.48l.41-.06c1.54-.18,3.14-.47,4.68-.77l-2.55,1.19c-2.84,1.24-5.16,7.76-4.74,9.72a2.23,2.23,0,0,0,2.25,1.84h.47l3.85-1.48,2.49-.95c-2.07,1.78-4.56,7-4.09,9a2.45,2.45,0,0,0,2.31,1.9l4-.95,8.12-2-.47.18-4.09,1.78c-2.73,1.13-5,7.41-4.62,9.3a2.24,2.24,0,0,0,2.25,1.9h.41l.36-.18a57.18,57.18,0,0,1,16.35-3.73c-.59,1.66-.95,3.44-.41,4.38l.65,1.19H1137l.36-.24a34.17,34.17,0,0,0,10-6.1c.3-.24,4.27-5.57,3.5-8.24a2.55,2.55,0,0,0-2-1.84l-.95-.12a62.07,62.07,0,0,0,6.28-5.16c.3-.3,4.38-5.87,3.32-8.65a2.67,2.67,0,0,0-2.43-1.6h-.41l-.65.12C1155.45,259.94,1158.3,255.38,1157.77,253.13Z"/><path class="cls-5" d="M1160,102.86c-9.3,1.19-18.55,2.9-27.79,4.5a131.11,131.11,0,0,0,19.91-12.86c.83-.65,4.68-7.58,2.84-7.17s-3.44.89-5.16,1.36l1.84-.77c1.36-.65,5.57-7.23,3.32-7.41a53.25,53.25,0,0,0-15.64,1.24c1.48-.83,2.9-1.72,4.33-2.67,1.07-.71,4.5-7.58,2.84-7.17a196.87,196.87,0,0,0-35.61,13.81,17.52,17.52,0,0,1,.71-2.67c3-7.29,14.81-7.7,21-7.11,2.49.3,5-7.41,4.15-7.53-14-1.3-26.49,6.46-29.81,19.2-1.66,1.07-4.44,7.94-2.31,6.87l1.54-.71V94c-1.36,2.19-3.14,6.22-2,5.81l2.31-.77a21.21,21.21,0,0,0,1.72,5.39c-.89,2-1.54,4.21-.65,4l2.67-.71a23,23,0,0,0,4.86,5c-1.07,2.07-1.84,4.38-.77,4.21,2.13-.24,4.21-.53,6.34-.89l.24.06c12,5,25.72-.47,36.26-6.28C1158.36,109.2,1161.79,102.62,1160,102.86Zm-46.16-3.26a19.73,19.73,0,0,1-1.42-2.73c7.7-3,15.47-6,23.41-7.7C1128.49,92.55,1121.15,96,1113.86,99.6Zm7.88,7.76a33.29,33.29,0,0,1-3-2.07c6.1-2,12.15-4.21,18.31-6.22C1132,101.85,1126.83,104.58,1121.74,107.36Z"/><path class="cls-7" d="M1125,132c24.95,2.55,47.17-12.86,43.79-39.58-2.19-17.18-13.39-25.42-27.08-28a40.25,40.25,0,0,0-11-1.54l-.47.06a7.1,7.1,0,0,0-2.55,0,57,57,0,0,0-5.87,1.19,81.6,81.6,0,0,0-13.39,3.08,35.57,35.57,0,0,1,16.3-3.91c.41,0,1.13-1.66.77-1.66C1080.67,61.32,1083.34,127.8,1125,132Zm41.77-35.73a33,33,0,0,0-.89-9.13c4.27,12.21,1.54,27.26-8.65,35.32-7.29,5.69-17.42,7.76-26.84,7.47C1151,128.4,1165.94,114.65,1166.77,96.28Zm-22.16-19.55,1.84,1.19a28.31,28.31,0,0,1,7.58,13,24.85,24.85,0,0,1-7.11,25.06c-8.18,5.93-19.38,6.93-27.38,0-8.95-7.82-9.54-19.91-5.16-29.86C1121.8,76.31,1132.64,70,1144.61,76.73Zm-18.43-6.58a32.19,32.19,0,0,1,9.78,1.6c-7.41.3-14.7,5.16-20.15,11.55a30.19,30.19,0,0,1,9.24-10.25c.36-.24,1-1.9.65-1.6a33.48,33.48,0,0,0-13,15.94l-1,1.54c-.41.65-.53,2,.18.83a30.56,30.56,0,0,0,.65,19.2c3.32,9.42,10.25,13.51,17.66,13.63l-.59.06c-14.46,0-22.1-12.62-23.11-24.35C1105.5,86.21,1111.19,72.81,1126.18,70.15Zm-32.06,29.57-.12-.47c-2.61-12.62,1.9-23.11,10.31-29.45-.12.36-.12.65,0,.59,2.19-.65,4.56-1.3,6.93-1.9-10,5.81-16.12,15.52-17.07,27.91A31,31,0,0,0,1094.13,99.72Z"/><path class="cls-7" d="M1291.39,232c24.95,2.55,47.17-12.92,43.79-39.64-2.19-17.18-13.39-25.36-27-27.91a40.68,40.68,0,0,0-11.08-1.54h-.47a9.43,9.43,0,0,0-2.55.06c-2,.3-4,.71-5.87,1.19a83,83,0,0,0-13.39,3.08,35.76,35.76,0,0,1,16.3-3.91c.47,0,1.13-1.66.77-1.66C1247.06,161.28,1249.73,227.71,1291.39,232Zm41.77-35.73a33,33,0,0,0-.89-9.13c4.33,12.21,1.54,27.26-8.65,35.26-7.29,5.75-17.42,7.82-26.78,7.53C1317.4,228.36,1332.33,214.61,1333.16,196.24Zm-22.1-19.55,1.78,1.13a27.52,27.52,0,0,1,7.58,13.1,24.46,24.46,0,0,1-7.11,25.06c-8.18,5.93-19.32,6.93-27.32-.06-9-7.76-9.6-19.85-5.21-29.81C1288.19,176.27,1299,170,1311.06,176.69Zm-18.49-6.64a34.11,34.11,0,0,1,9.78,1.66c-7.41.3-14.7,5.16-20.15,11.55a31.6,31.6,0,0,1,9.24-10.31c.41-.24,1-1.84.65-1.6a34.26,34.26,0,0,0-13,16l-1,1.54c-.41.65-.53,2,.24.83a30.13,30.13,0,0,0,.59,19.2c3.32,9.42,10.25,13.45,17.72,13.63l-.65.06c-14.46,0-22.1-12.62-23.11-24.35C1271.89,186.17,1277.58,172.72,1292.57,170.05Zm-32.06,29.57-.06-.41c-2.67-12.68,1.84-23.11,10.25-29.45-.12.36-.12.65,0,.59,2.19-.65,4.56-1.3,6.93-1.9-10,5.81-16.12,15.52-17.07,27.85C1260.51,197.43,1260.51,198.55,1260.51,199.62Z"/><path class="cls-7" d="M1167,173.67a65.44,65.44,0,0,0-7.35-17.66,43.75,43.75,0,0,0-10-13.87l-.06-.06c-1.72-2-3.5-4-5.33-6,.18-.47.24-.89-.12-.47l-.18.12-.36-.36c-.12-.18-1.19,1.19-1.07,1.84-9.66,8.65-25,9.36-34.55,0-.12-.24-1.3,1.36-.95,1.78.71.71,1.42,1.3,2.19,2-.65-.18-1.07-.3-1.24-.12a24.8,24.8,0,0,0-7.35,10.9l1.19-5.33c.24-.95-.95.71-1.07,1.07-4,17.18-7.41,34.43-8.41,52.09-1,16.77,1.3,33.6,2.9,50.25,2.13,22.46,10.31,62,41.42,53.39a36.34,36.34,0,0,0,16.18-9.66l-.41.59c-.24.36-.77,2.07-.06,1.07,1.24-1.6,2.31-3.2,3.44-4.86,8.18-10,12.62-23.64,13.75-35.85l.24-3.61c1.54-10.9,1.36-22.34,1.07-32.77C1170.51,203.29,1170.56,188.07,1167,173.67Zm-23.88-35.79,2.43,2.73c-1.66.18-4.86.65-6.1,1.84-2.78,2.43-6.52,3.14-10.49,3A26,26,0,0,0,1143.13,137.88ZM1111,149.49c7.17,4.27,21.33,4.44,29.92.71,18.31,28.92,22.28,139.9-11.73,140.32-3.2-.95-6.76-3.32-9.66-8.41-6.4-11.44-7.53-27-8.53-40.77l-.36-5.27-.65-7C1108.11,209,1104.38,162.88,1111,149.49Zm12.62,151.75c-25.06-5.93-26.19-43.49-28-63.52-1.3-14.4-2.67-28.44-1.84-43a235.52,235.52,0,0,1,4.74-33.36,97.26,97.26,0,0,0-.36,12.68c.24,8.65.18,17.48.18,26-.06,12.5-.06,25.42.65,38.22,1.07,18.49,3.5,61.68,32,61.68a38.65,38.65,0,0,0,12.92-2.55,30.22,30.22,0,0,0,3.44-1.54C1140.46,300.77,1132.17,303.26,1123.63,301.24Zm28.86-25.84c-2.55,8.24-9.42,14.46-16.89,15.52,27.2-12.8,24.47-104.64,9.3-137.59a38.34,38.34,0,0,1,3,5.57c1.48,5.39,3.2,10.84,5,16.35,1.42,6.93,2.19,14,2.9,20.21l.53,4.62C1160.08,230.31,1158.77,254.91,1152.49,275.41Zm17.3-53.69V221l.06,1.6Z"/><path class="cls-7" d="M1347.44,286.25a99.49,99.49,0,0,0,45.21-54.93,84.21,84.21,0,0,0,2.78-10.61,63.89,63.89,0,0,1-.06,14.28C1387.32,259.71,1369.37,276.59,1347.44,286.25Zm-151.28-57.42a86.32,86.32,0,0,1-2.07-12.33.88.88,0,0,0,.59-.77c.06-15.35.77-30.75,3.73-45.69,2.73-8.47,7.05-15.94,11.55-23.52-20.09,37.33-20,86.45,6.64,118.92A76.39,76.39,0,0,1,1196.16,228.83Zm11.5-87.34c9.18-19.32,27.08-31.11,47-37.92a80.46,80.46,0,0,0-22.87,14.7,107.4,107.4,0,0,0-17.6,21.09c1-1.72,2-3.44,2.9-5.21.65-1.24-1.84-1.24-2.31-.3-4.5,8.47-9.36,16.12-13.45,24.18A114.41,114.41,0,0,1,1207.66,141.49Zm122.9-40.77a140.46,140.46,0,0,0-22-3.85q-7.2-.71-14.22-.71l4.09-.24A88.56,88.56,0,0,1,1330.55,100.72Zm54.22,41.3-1.24-1.9a87.74,87.74,0,0,0-6.46-10.55,61.19,61.19,0,0,0-21.69-18.25c-1.24-.89-2.55-1.72-3.85-2.55C1366.4,115.54,1379.26,126.14,1384.77,142Zm-97.83-40.71c-19.2,2.84-36.44,10.19-50.37,21.69a86.57,86.57,0,0,1,15.64-13.1C1262,103.57,1274.44,101.44,1286.94,101.32ZM1258.8,282.22c17.54,7.05,39.88,11.26,58.54,6.7,42.6-10.43,61-50,60.74-91.43-.12-19.79-3.91-42-12.8-59.79-9.66-19.2-31.76-24.29-51-27.44-22.28-3.67-41.66,1.3-60.08,13.92-15.52,10.73-32.35,23.88-39.76,39.52a89.91,89.91,0,0,1,8.53-19.67c9.72-16.12,36.32-26.43,53.45-32.12,24.24-8,52.14-7,73.77,6a53.14,53.14,0,0,1,8.77,9.07c12,15.82,17.07,37.51,20,56.88,6.93,45.09-10.37,85.86-53.69,103.87-26.37,11-59.55,4.62-83-12.56C1248.07,278.13,1254.17,280.33,1258.8,282.22Zm-51-80.05c2.43-6.81.83-17.18,2.61-24.12,6.52-18,21.81-33.24,36.74-46.4,21.15-18.72,44.5-23.64,71.82-19.14,21.51,3.56,39,12.38,47.82,33.18,6.64,15.76,8.71,35.08,9.3,52,1.42,38.93-16.12,75.55-54.1,88.7-18,6.22-41.42,2-58.84-4.27C1254.35,279,1205.23,261.48,1207.78,202.17Zm189.79,24.65a64.15,64.15,0,0,0-1.19-12c2.19-16.18.77-34.25-3.73-50.84C1400.18,183.8,1402.31,205.78,1397.57,226.82Zm-10.78-81.65c-5.27-19.55-21-31.64-39.23-38.81a88.74,88.74,0,0,0-43.49-12.15,155.69,155.69,0,0,0-38.34,4.33c-21.39,3.56-41.3,12.09-54.16,27.85-.36.47.59.53.83.24,10.67-13.1,26.19-21,43.32-25.3-15.58,5.16-30,13.33-40.89,25.42-11.85,13.15-17.48,30.46-20.15,48.41-.3,1.19-.65,2.31-.89,3.56a127.49,127.49,0,0,0,1.19,56.17c5.1,20.92,20,35.49,37.75,45.74.89.59,1.72,1.24,2.67,1.9a106.86,106.86,0,0,0,90.6,13c28.56-6.93,54-24.41,67.67-51.55-4.92,18.25-18.07,34.49-36.68,46.28-40.12,25.3-103.93,18.49-137.29-15.47-.36-.36-2.19.41-1.9.65,31.94,32.47,86.69,38,127.64,21.45,27.61-11.08,47.4-33.83,51.43-60,.47-1.19.95-2.37,1.36-3.61C1408.71,203.89,1402.79,171.42,1386.79,145.17Z"/><path class="cls-5" d="M1029.3,255.2c2-2.9,6.28-4,9.78-4.38C1035.94,252.12,1032.68,253.6,1029.3,255.2Zm44.86,18.9a1.9,1.9,0,0,0-2.13-1.48c-5.75.71-11.5,1.72-17.12,2.67a106.86,106.86,0,0,0,11-7.58c.65-.59,4.27-6.1,3.56-8.24a1.78,1.78,0,0,0-1.24-1.19c.95-1.66,1.66-3.44,1.48-4.62a2.2,2.2,0,0,0-2-1.78,45.69,45.69,0,0,0-8.53.12c1.3-2,2.84-5.33,2.37-6.81a1.83,1.83,0,0,0-2.25-1.24c-2.61.65-5.21,1.42-7.88,2.31a11.42,11.42,0,0,0,.95-3.38,1.9,1.9,0,0,0-1.6-2.25c-13.87-1.3-25.84,6.46-29.21,18.55-1.6,1.66-3.44,5.75-3,7.53a2.35,2.35,0,0,0,.83,1.13c-.71,1.66-1.24,3.32-.71,4.33a1.89,1.89,0,0,0,2.19.77l.47-.18a30.65,30.65,0,0,0,1.07,3c-1.3,3.14-.77,4-.53,4.38a1.88,1.88,0,0,0,2.07.77l1.42-.36a21.1,21.1,0,0,0,3.2,3.32c-1.13,2.49-.89,3.5-.53,4.15a2.09,2.09,0,0,0,2,.89c1.84-.24,3.67-.47,5.51-.77a26.88,26.88,0,0,0,9.84,1.84c7.23,0,15.41-2.61,25.06-7.88C1071.79,281.33,1074.69,276.12,1074.16,274.1Z"/><path class="cls-7" d="M1039.61,301.36c23.23,2.31,43.91-12,40.77-36.86-2.07-16-12.5-23.64-25.18-26a39.72,39.72,0,0,0-10.31-1.42l-.41.06a6.11,6.11,0,0,0-2.37,0,52.18,52.18,0,0,0-5.45,1.13,77.55,77.55,0,0,0-12.44,2.84,33.13,33.13,0,0,1,15.17-3.61c.36,0,1-1.54.71-1.54C998.37,235.59,1000.86,297.39,1039.61,301.36Zm38.87-33.24a29,29,0,0,0-.89-8.53c4,11.38,1.48,25.36-8,32.83-6.76,5.33-16.18,7.29-24.95,7C1063.85,298,1077.71,285.18,1078.48,268.12Zm-20.62-18.19,1.72,1.07a26.42,26.42,0,0,1,7.05,12.15,23.4,23.4,0,0,1-2.67,18.67,27.22,27.22,0,0,1-4,4.68c-7.58,5.51-18,6.4-25.42-.06-8.35-7.23-8.89-18.49-4.8-27.73C1036.65,249.51,1046.72,243.71,1057.86,249.93Zm-17.18-6.16a34.19,34.19,0,0,1,9.13,1.48c-6.87.3-13.69,4.86-18.72,10.78a28.34,28.34,0,0,1,8.59-9.54c.36-.24.95-1.78.59-1.48a31.33,31.33,0,0,0-12,14.81l-.95,1.48c-.41.59-.53,1.84.18.71a28.16,28.16,0,0,0,.59,17.9c3.08,8.77,9.48,12.5,16.41,12.68l-.59.06c-13.45,0-20.5-11.73-21.45-22.64C1021.48,258.7,1026.75,246.25,1040.68,243.77Zm-29.75,27.49-.12-.41c-2.43-11.73,1.78-21.45,9.6-27.38-.12.36-.12.59-.06.53,2.07-.59,4.27-1.19,6.46-1.78-9.3,5.45-14.93,14.52-15.82,26A27,27,0,0,0,1010.93,271.26Z"/></svg>